<?xml version="1.0" encoding="UTF-8"?>
<svg version="1.1" xmlns="http://www.w3.org/2000/svg" width="500" height="500">
<path d="M0 0 C165 0 330 0 500 0 C500 165 500 330 500 500 C335 500 170 500 0 500 C0 335 0 170 0 0 Z " fill="#FEFEFE" transform="translate(0,0)"/>
<path d="M0 0 C1.08162415 -0.00960754 2.16324829 -0.01921509 3.27764893 -0.02911377 C5.03851837 -0.03548859 5.03851837 -0.03548859 6.83496094 -0.04199219 C8.03868347 -0.04769226 9.24240601 -0.05339233 10.48260498 -0.05926514 C13.03478107 -0.06872636 15.58696943 -0.07525356 18.13916016 -0.07910156 C22.03928056 -0.08879251 25.93887089 -0.11980025 29.83886719 -0.15136719 C32.31672864 -0.15789853 34.79459386 -0.16314848 37.27246094 -0.16699219 C39.021185 -0.18551239 39.021185 -0.18551239 40.80523682 -0.20440674 C51.25875254 -0.17573639 51.25875254 -0.17573639 55.81933594 3.16113281 C56.31433594 4.64613281 56.31433594 4.64613281 56.81933594 6.16113281 C58.41983581 7.49506696 58.41983581 7.49506696 60.31933594 8.66113281 C63.70822483 10.82779948 63.70822483 10.82779948 64.81933594 14.16113281 C66.45900804 15.52752623 68.13043721 16.85607471 69.81933594 18.16113281 C72.68099675 20.87604179 75.29379806 23.70073837 77.81933594 26.72363281 C80.25128739 29.60341165 82.82488202 31.85770672 85.81933594 34.16113281 C88.68099675 36.87604179 91.29379806 39.70073837 93.81933594 42.72363281 C96.25128739 45.60341165 98.82488202 47.85770672 101.81933594 50.16113281 C106.65450077 54.66662732 106.65450077 54.66662732 107.81933594 58.16113281 C108.72288818 58.155896 109.62644043 58.15065918 110.55737305 58.14526367 C113.89885083 58.12825596 117.24028285 58.11569948 120.58178711 58.10620117 C122.03003666 58.1011618 123.47828111 58.09433028 124.92651367 58.08569336 C127.00408182 58.07361034 129.08158291 58.0679007 131.15917969 58.06347656 C132.41077881 58.05823975 133.66237793 58.05300293 134.9519043 58.04760742 C137.81933594 58.16113281 137.81933594 58.16113281 138.81933594 59.16113281 C138.96048755 61.83172132 138.86180701 64.48545519 138.81933594 67.16113281 C138.15933594 66.17113281 137.49933594 65.18113281 136.81933594 64.16113281 C133.92325194 63.79615247 133.92325194 63.79615247 130.69433594 63.97363281 C127.78621094 64.06644531 127.78621094 64.06644531 124.81933594 64.16113281 C124.81933594 68.45113281 124.81933594 72.74113281 124.81933594 77.16113281 C121.82402054 78.15957128 120.64677862 78.16846042 117.63183594 77.72363281 C115.74464844 77.44519531 115.74464844 77.44519531 113.81933594 77.16113281 C113.35527344 78.12019531 113.35527344 78.12019531 112.88183594 79.09863281 C111.81933594 81.16113281 111.81933594 81.16113281 110.81933594 82.16113281 C110.45172863 84.48931245 110.11692013 86.82297131 109.81933594 89.16113281 C111.80501302 89.09602865 113.7906901 89.03092448 115.77636719 88.96582031 C117.81933594 89.16113281 117.81933594 89.16113281 120.81933594 91.16113281 C120.22918701 91.18618896 119.63903809 91.21124512 119.03100586 91.23706055 C116.3560678 91.35313333 113.68147213 91.47580853 111.00683594 91.59863281 C110.07806641 91.63794922 109.14929688 91.67726563 108.19238281 91.71777344 C107.29970703 91.75966797 106.40703125 91.8015625 105.48730469 91.84472656 C104.66512451 91.88138428 103.84294434 91.91804199 102.99584961 91.95581055 C100.64028416 92.09541053 100.64028416 92.09541053 97.81933594 93.16113281 C97.32433594 94.64613281 97.32433594 94.64613281 96.81933594 96.16113281 C96.15933594 96.16113281 95.49933594 96.16113281 94.81933594 96.16113281 C94.81933594 98.14113281 94.81933594 100.12113281 94.81933594 102.16113281 C95.80933594 101.83113281 96.79933594 101.50113281 97.81933594 101.16113281 C99.54728945 101.09310315 101.27768959 101.07617637 103.00683594 101.09863281 C104.35841797 101.11216797 104.35841797 101.11216797 105.73730469 101.12597656 C106.424375 101.13757813 107.11144531 101.14917969 107.81933594 101.16113281 C107.81933594 98.19113281 107.81933594 95.22113281 107.81933594 92.16113281 C108.14933594 92.16113281 108.47933594 92.16113281 108.81933594 92.16113281 C108.81933594 95.13113281 108.81933594 98.10113281 108.81933594 101.16113281 C113.43933594 100.83113281 118.05933594 100.50113281 122.81933594 100.16113281 C122.81933594 101.15113281 122.81933594 102.14113281 122.81933594 103.16113281 C124.13933594 103.49113281 125.45933594 103.82113281 126.81933594 104.16113281 C123.84933594 104.65613281 123.84933594 104.65613281 120.81933594 105.16113281 C120.81933594 105.82113281 120.81933594 106.48113281 120.81933594 107.16113281 C119.67980469 107.24564697 118.54027344 107.33016113 117.36621094 107.41723633 C113.10658685 107.74158891 108.85135514 108.1075184 104.59619141 108.4855957 C102.76020504 108.6429798 100.92323612 108.78933186 99.08544922 108.92407227 C85.80487419 109.46830643 85.80487419 109.46830643 75.07983398 116.453125 C74.66386963 117.01676758 74.24790527 117.58041016 73.81933594 118.16113281 C73.09746094 119.04800781 72.37558594 119.93488281 71.63183594 120.84863281 C71.03371094 121.61175781 70.43558594 122.37488281 69.81933594 123.16113281 C67.09922431 125.54952351 65.2607044 127.01400999 61.81933594 128.16113281 C62.74197235 128.16921967 63.66460876 128.17730652 64.61520386 128.18563843 C73.29722819 128.26348045 81.97909526 128.35073929 90.66091728 128.4486599 C95.12466175 128.49867116 99.58838199 128.54500057 104.05224609 128.58300781 C108.35765874 128.61979987 112.66287103 128.66614282 116.96811295 128.71919632 C118.6131655 128.73777272 120.25826105 128.75286861 121.90337753 128.76447678 C124.20223393 128.78128409 126.50062818 128.81030461 128.79931641 128.84228516 C130.10947723 128.85560883 131.41963806 128.8689325 132.76950073 128.88265991 C135.81933594 129.16113281 135.81933594 129.16113281 137.81933594 131.16113281 C137.81933594 132.48113281 137.81933594 133.80113281 137.81933594 135.16113281 C135.11054258 136.51552949 132.81000326 136.22614732 129.81933594 136.16113281 C130.47933594 137.15113281 131.13933594 138.14113281 131.81933594 139.16113281 C132.27794946 142.75360538 132.29968459 144.47755972 130.19433594 147.47363281 C127.37975561 149.47346621 125.22614007 149.85142335 121.81933594 150.16113281 C119.23020327 147.41017936 117.9010276 145.84189665 117.44433594 142.03613281 C117.81933594 139.16113281 117.81933594 139.16113281 119.81933594 136.16113281 C100.01933594 136.16113281 80.21933594 136.16113281 59.81933594 136.16113281 C60.47933594 137.15113281 61.13933594 138.14113281 61.81933594 139.16113281 C61.89838658 141.49312669 61.90732363 143.82945903 61.81933594 146.16113281 C61.15933594 146.16113281 60.49933594 146.16113281 59.81933594 146.16113281 C59.48933594 147.15113281 59.15933594 148.14113281 58.81933594 149.16113281 C56.06408404 149.92648056 54.37414729 150.35135385 51.63183594 149.41113281 C49.81933594 148.16113281 49.81933594 148.16113281 47.81933594 145.16113281 C47.44433594 142.22363281 47.44433594 142.22363281 47.81933594 139.16113281 C49.81933594 136.78613281 49.81933594 136.78613281 51.81933594 135.16113281 C51.01496094 134.35675781 50.21058594 133.55238281 49.38183594 132.72363281 C45.81933594 129.16113281 45.81933594 129.16113281 45.72167969 127.31347656 C45.75423177 125.26269531 45.78678385 123.21191406 45.81933594 121.16113281 C45.15933594 121.16113281 44.49933594 121.16113281 43.81933594 121.16113281 C42.37402344 119.43847656 42.37402344 119.43847656 40.69433594 117.09863281 C37.7155844 113.14962403 34.58456872 110.01114357 30.79980469 106.84863281 C27.61956984 104.13884691 24.74169346 101.1425942 21.81933594 98.16113281 C18.61616832 94.95160549 15.40362743 91.7516254 12.18757629 88.55502319 C9.7953347 86.17621837 7.4057997 83.79470219 5.01635742 81.41308594 C3.75552275 80.15731486 2.49379711 78.90243773 1.23120117 77.6484375 C-0.59984952 75.82949724 -2.42766789 74.00736274 -4.25488281 72.18457031 C-4.81946701 71.6251474 -5.38405121 71.06572449 -5.96574402 70.48934937 C-10.19721856 66.25848445 -12.42071256 63.82436811 -12.48706055 57.77514648 C-12.50304794 56.67357712 -12.51903534 55.57200775 -12.5355072 54.4370575 C-12.5408699 53.24643204 -12.5462326 52.05580658 -12.55175781 50.82910156 C-12.56078629 49.60459793 -12.56981476 48.3800943 -12.57911682 47.1184845 C-12.59363707 44.52522228 -12.60251044 41.93192329 -12.60620117 39.33862305 C-12.61808641 35.37453252 -12.66724984 31.41200355 -12.71777344 27.44824219 C-12.72723863 24.92936958 -12.7344732 22.41048741 -12.73925781 19.89160156 C-12.75879013 18.7070488 -12.77832245 17.52249603 -12.79844666 16.30204773 C-12.74820456 7.11765206 -12.74820456 7.11765206 -9.77075195 3.42797852 C-6.21755331 0.31821799 -4.61974227 0.0330462 0 0 Z " fill="#FC3132" transform="translate(186.1806640625,128.8388671875)"/>
<path d="M0 0 C4.02955086 0.02736537 8.00319056 0.5152611 12 1 C13.62808594 1.17402344 13.62808594 1.17402344 15.2890625 1.3515625 C22.93790155 2.62320572 22.93790155 2.62320572 25.6875 6.1875 C27.03319068 9.08073497 28.02997693 11.96034756 29 15 C29.92859369 17.39929935 30.86603569 19.79519381 31.8125 22.1875 C32.54400115 24.12411983 33.27356059 26.0614758 34 28 C46.99174277 28.66792853 59.98469694 29.1432056 72.98828125 29.5 C74.10059427 29.53080154 74.10059427 29.53080154 75.23537827 29.56222534 C82.18356827 29.75451602 89.13184939 29.94320598 96.08032227 30.125 C99.92479942 30.22579812 103.76912546 30.33123889 107.61339378 30.43969727 C109.06667458 30.47976187 110.52000626 30.5180231 111.97338295 30.55444336 C113.98017281 30.60483175 115.98679902 30.66161765 117.9934082 30.71875 C119.70256157 30.76418945 119.70256157 30.76418945 121.44624329 30.81054688 C124 31 124 31 125 32 C125.14115161 34.67058851 125.04247107 37.32432238 125 40 C124.34 39.01 123.68 38.02 123 37 C120.10391601 36.63501966 120.10391601 36.63501966 116.875 36.8125 C113.966875 36.9053125 113.966875 36.9053125 111 37 C111 41.29 111 45.58 111 50 C108.00468461 50.99843846 106.82744268 51.00732761 103.8125 50.5625 C101.9253125 50.2840625 101.9253125 50.2840625 100 50 C99.5359375 50.9590625 99.5359375 50.9590625 99.0625 51.9375 C98 54 98 54 97 55 C96.63239269 57.32817964 96.29758419 59.6618385 96 62 C97.98567708 61.93489583 99.97135417 61.86979167 101.95703125 61.8046875 C104 62 104 62 107 64 C106.40985107 64.02505615 105.81970215 64.0501123 105.21166992 64.07592773 C102.53673186 64.19200052 99.8621362 64.31467572 97.1875 64.4375 C96.25873047 64.47681641 95.32996094 64.51613281 94.37304688 64.55664062 C93.48037109 64.59853516 92.58769531 64.64042969 91.66796875 64.68359375 C90.84578857 64.72025146 90.0236084 64.75690918 89.17651367 64.79467773 C86.82094822 64.93427772 86.82094822 64.93427772 84 66 C83.505 67.485 83.505 67.485 83 69 C82.34 69 81.68 69 81 69 C81 70.98 81 72.96 81 75 C81.99 74.67 82.98 74.34 84 74 C85.72795352 73.93197033 87.45835365 73.91504355 89.1875 73.9375 C90.53908203 73.95103516 90.53908203 73.95103516 91.91796875 73.96484375 C92.60503906 73.97644531 93.29210937 73.98804688 94 74 C94 71.03 94 68.06 94 65 C94.33 65 94.66 65 95 65 C95 67.97 95 70.94 95 74 C99.62 73.67 104.24 73.34 109 73 C109 73.99 109 74.98 109 76 C110.98 76.495 110.98 76.495 113 77 C111.02 77.33 109.04 77.66 107 78 C107 78.66 107 79.32 107 80 C105.86046875 80.08451416 104.7209375 80.16902832 103.546875 80.25610352 C99.28725091 80.58045609 95.0320192 80.94638559 90.77685547 81.32446289 C88.9408691 81.48184699 87.10390019 81.62819905 85.26611328 81.76293945 C71.98553825 82.30717361 71.98553825 82.30717361 61.26049805 89.29199219 C60.84453369 89.85563477 60.42856934 90.41927734 60 91 C59.278125 91.886875 58.55625 92.77375 57.8125 93.6875 C57.214375 94.450625 56.61625 95.21375 56 96 C53.27988837 98.3883907 51.44136846 99.85287718 48 101 C49.38395462 101.01213028 49.38395462 101.01213028 50.79586792 101.02450562 C59.47789225 101.10234763 68.15975932 101.18960648 76.84158134 101.28752708 C81.30532581 101.33753835 85.76904606 101.38386776 90.23291016 101.421875 C94.53832281 101.45866706 98.84353509 101.50501001 103.14877701 101.55806351 C104.79382956 101.57663991 106.43892511 101.59173579 108.0840416 101.60334396 C110.38289799 101.62015128 112.68129224 101.64917179 114.97998047 101.68115234 C116.2901413 101.69447601 117.60030212 101.70779968 118.95016479 101.7215271 C122 102 122 102 124 104 C124 105.32 124 106.64 124 108 C121.29120665 109.35439668 118.99066732 109.06501451 116 109 C116.99 110.485 116.99 110.485 118 112 C118.45861352 115.59247257 118.48034866 117.31642691 116.375 120.3125 C113.56041967 122.31233339 111.40680413 122.69029053 108 123 C105.41086734 120.24904655 104.08169166 118.68076384 103.625 114.875 C104 112 104 112 106 109 C86.2 109 66.4 109 46 109 C46.99 110.485 46.99 110.485 48 112 C48.07905064 114.33199388 48.08798769 116.66832622 48 119 C47.34 119 46.68 119 46 119 C45.505 120.485 45.505 120.485 45 122 C42.2447481 122.76534775 40.55481136 123.19022104 37.8125 122.25 C36 121 36 121 34 118 C33.625 115.0625 33.625 115.0625 34 112 C36 109.625 36 109.625 38 108 C37.195625 107.195625 36.39125 106.39125 35.5625 105.5625 C32 102 32 102 31.90234375 100.15234375 C31.93489583 98.1015625 31.96744792 96.05078125 32 94 C32.66 94 33.32 94 34 94 C34.2475 93.4225 34.495 92.845 34.75 92.25 C36.18299988 89.67060021 37.78424676 87.93878408 40 86 C40.66 86 41.32 86 42 86 C42 85.34 42 84.68 42 84 C43.98 83.505 43.98 83.505 46 83 C42.41746042 70.40548196 37.62128391 58.33954829 32.625 46.25 C31.2513525 42.85697326 30.38576778 39.66479394 30 36 C29.34 36 28.68 36 28 36 C27.773125 34.700625 27.54625 33.40125 27.3125 32.0625 C26.33029341 27.55424241 24.52351953 24.15242358 22.17578125 20.21875 C20.42005181 16.90561272 19.73287784 13.66438921 19 10 C17.46279297 9.81824219 17.46279297 9.81824219 15.89453125 9.6328125 C14.53381021 9.46389541 13.1731355 9.2946048 11.8125 9.125 C10.80219727 9.00705078 10.80219727 9.00705078 9.77148438 8.88671875 C5.89672516 8.39528587 2.54915277 7.64019099 -1 6 C-1.042721 4.33388095 -1.04063832 2.66617115 -1 1 C-0.67 0.67 -0.34 0.34 0 0 Z " fill="#4A205A" transform="translate(200,156)"/>
<path d="M0 0 C3.71599191 -0.20086443 4.77208445 -0.1519437 8 2 C9.1875 5.625 9.1875 5.625 10 9 C11.32 8.67 12.64 8.34 14 8 C14 8.66 14 9.32 14 10 C14.556875 10.0825 15.11375 10.165 15.6875 10.25 C22.05200882 12.31416502 26.82637173 18.56695517 31 23.5625 C33.43195146 26.44227883 36.00554608 28.69657391 39 31 C41.86166082 33.71490898 44.47446212 36.53960555 47 39.5625 C49.43195146 42.44227883 52.00554608 44.69657391 55 47 C59.7826087 51.56521739 59.7826087 51.56521739 61 54 C20.17297641 54.20638953 20.17297641 54.20638953 1 53 C-7.45916795 34.7642527 -7.45916795 34.7642527 -9 28 C-9.515625 27.87625 -10.03125 27.7525 -10.5625 27.625 C-12.49182308 27.13030177 -14.40575555 26.57562097 -16.3125 26 C-19.88117227 25.03222447 -23.34024228 24.48971668 -27 24 C-27.06058594 22.95199219 -27.12117188 21.90398437 -27.18359375 20.82421875 C-27.26801738 19.44529952 -27.35266447 18.06639395 -27.4375 16.6875 C-27.47681641 15.99720703 -27.51613281 15.30691406 -27.55664062 14.59570312 C-27.74927415 11.52838465 -28.02322717 8.93031848 -29 6 C-29.99 6 -30.98 6 -32 6 C-32.33 6.66 -32.66 7.32 -33 8 C-35.64 7.67 -38.28 7.34 -41 7 C-41 6.67 -41 6.34 -41 6 C-39.35 6 -37.7 6 -36 6 C-36 5.34 -36 4.68 -36 4 C-40.29 3.67 -44.58 3.34 -49 3 C-49 2.67 -49 2.34 -49 2 C-32.83 2 -16.66 2 0 2 C0 1.34 0 0.68 0 0 Z M7 8 C7.33 8.99 7.66 9.98 8 11 C8.66 11 9.32 11 10 11 C10 10.34 10 9.68 10 9 C9.01 8.67 8.02 8.34 7 8 Z " fill="#FB3232" transform="translate(233,132)"/>
<path d="M0 0 C12.96769528 -0.12482274 25.91380739 0.04863649 38.875 0.4375 C39.89797684 0.4669722 39.89797684 0.4669722 40.94161987 0.49703979 C50.97753704 0.79037301 60.98351756 1.32050664 71 2 C71 5.96 71 9.92 71 14 C68.36 14.33 65.72 14.66 63 15 C62.814375 15.928125 62.814375 15.928125 62.625 16.875 C62 19 62 19 60 21 C59.59952556 23.32275177 59.2602896 25.65739357 59 28 C61.97851562 27.90234375 61.97851562 27.90234375 64.95703125 27.8046875 C67 28 67 28 70 30 C69.40985107 30.02505615 68.81970215 30.0501123 68.21166992 30.07592773 C65.53673186 30.19200052 62.8621362 30.31467572 60.1875 30.4375 C58.7943457 30.49647461 58.7943457 30.49647461 57.37304688 30.55664062 C56.48037109 30.59853516 55.58769531 30.64042969 54.66796875 30.68359375 C53.84578857 30.72025146 53.0236084 30.75690918 52.17651367 30.79467773 C49.82094822 30.93427772 49.82094822 30.93427772 47 32 C46.67 32.99 46.34 33.98 46 35 C45.34 35 44.68 35 44 35 C44 36.98 44 38.96 44 41 C39.45255028 42.51581657 34.81999829 42.44588967 30.0546875 42.71875 C27.12681152 42.66008904 27.12681152 42.66008904 26 44 C24.37860563 44.12494616 22.75115878 44.17571624 21.125 44.1875 C20.24070312 44.20167969 19.35640625 44.21585938 18.4453125 44.23046875 C16 44 16 44 13 42 C12.70703125 39.1796875 12.70703125 39.1796875 12.8125 35.875 C12.83957031 34.77929688 12.86664063 33.68359375 12.89453125 32.5546875 C12.92933594 31.71164063 12.96414062 30.86859375 13 30 C13.66 30 14.32 30 15 30 C15 29.34 15 28.68 15 28 C13.02 28 11.04 28 9 28 C6 22.25 6 22.25 6 20 C5.34 20 4.68 20 4 20 C3.96261719 19.33613281 3.92523438 18.67226562 3.88671875 17.98828125 C3.49779195 12.76446044 2.91747201 9.43963131 0 5 C-0.08984375 2.36328125 -0.08984375 2.36328125 0 0 Z " fill="#77234F" transform="translate(237,190)"/>
<path d="M0 0 C10.23 0 20.46 0 31 0 C24.60651408 12.78697183 24.60651408 12.78697183 20.45703125 18.75390625 C17.92872777 22.65142502 16.00462585 26.81386956 14 31 C19.61 31 25.22 31 31 31 C31.495 33.97 31.495 33.97 32 37 C32.67095703 35.15148437 32.67095703 35.15148437 33.35546875 33.265625 C42.09650774 9.29082745 42.09650774 9.29082745 47 0 C49.64 0 52.28 0 55 0 C58.30199356 5.9435884 59.95518663 11.29119838 61 18 C61.66 18 62.32 18 63 18 C63.7945261 20.18646304 64.5854858 22.37422221 65.375 24.5625 C66.03628906 26.38974609 66.03628906 26.38974609 66.7109375 28.25390625 C67.9372554 31.81766039 68.99981127 35.36847363 70 39 C67.03 39 64.06 39 61 39 C60.34 36.36 59.68 33.72 59 31 C53.72 31 48.44 31 43 31 C42.67 32.98 42.34 34.96 42 37 C41.505 37.99 41.505 37.99 41 39 C26.81 39 12.62 39 -2 39 C-0.45524522 35.13811304 1.04222989 32.08304687 3.1875 28.5859375 C3.80367187 27.57789063 4.41984375 26.56984375 5.0546875 25.53125 C5.69664062 24.4896875 6.33859375 23.448125 7 22.375 C7.64195312 21.32570313 8.28390625 20.27640625 8.9453125 19.1953125 C13.5984623 11.60230655 13.5984623 11.60230655 16 8 C10.72 8 5.44 8 0 8 C0 5.36 0 2.72 0 0 Z " fill="#F20D0E" transform="translate(135,280)"/>
<path d="M0 0 C-0.53109375 0.44730469 -1.0621875 0.89460937 -1.609375 1.35546875 C-5.50469313 4.68923554 -8.83053296 7.95619723 -12 12 C-14.72011163 14.3883907 -16.55863154 15.85287718 -20 17 C-19.07736359 17.00808685 -18.15472717 17.01617371 -17.20413208 17.02450562 C-8.52210775 17.10234763 0.15975932 17.18960648 8.84158134 17.28752708 C13.30532581 17.33753835 17.76904606 17.38386776 22.23291016 17.421875 C26.53832281 17.45866706 30.84353509 17.50501001 35.14877701 17.55806351 C36.79382956 17.57663991 38.43892511 17.59173579 40.0840416 17.60334396 C42.38289799 17.62015128 44.68129224 17.64917179 46.97998047 17.68115234 C48.2901413 17.69447601 49.60030212 17.70779968 50.95016479 17.7215271 C54 18 54 18 56 20 C56 21.32 56 22.64 56 24 C53.29120665 25.35439668 50.99066732 25.06501451 48 25 C48.99 26.485 48.99 26.485 50 28 C50.45861352 31.59247257 50.48034866 33.31642691 48.375 36.3125 C45.56041967 38.31233339 43.40680413 38.69029053 40 39 C37.41086734 36.24904655 36.08169166 34.68076384 35.625 30.875 C36 28 36 28 38 25 C18.2 25 -1.6 25 -22 25 C-21.34 25.99 -20.68 26.98 -20 28 C-19.92094936 30.33199388 -19.91201231 32.66832622 -20 35 C-20.66 35 -21.32 35 -22 35 C-22.33 35.99 -22.66 36.98 -23 38 C-25.7552519 38.76534775 -27.44518864 39.19022104 -30.1875 38.25 C-32 37 -32 37 -34 34 C-34.375 31.0625 -34.375 31.0625 -34 28 C-32 25.625 -32 25.625 -30 24 C-30.66 23.38125 -31.32 22.7625 -32 22.125 C-34 20 -34 20 -34 18 C-33.34 18 -32.68 18 -32 18 C-32 18.66 -32 19.32 -32 20 C-31.34 20 -30.68 20 -30 20 C-30 19.34 -30 18.68 -30 18 C-29.34 18 -28.68 18 -28 18 C-28.165 17.154375 -28.33 16.30875 -28.5 15.4375 C-27.72172438 10.08685513 -24.08941434 8.20138458 -20 5 C-19.24976563 4.24783203 -19.24976563 4.24783203 -18.484375 3.48046875 C-14.75771148 -0.23548596 -11.38261701 -0.69532651 -6.3671875 -1.0546875 C-4.07860414 -1.00181594 -2.18578239 -0.65472744 0 0 Z " fill="#2E2667" transform="translate(268,240)"/>
<path d="M0 0 C0.33 0 0.66 0 1 0 C1.28775938 8.91734345 0.54045009 17.58624311 -0.59912109 26.41235352 C-0.87844865 28.58937811 -1.14098017 30.76801906 -1.40234375 32.94726562 C-1.57713525 34.34127029 -1.75288055 35.73515578 -1.9296875 37.12890625 C-2.08679199 38.37744385 -2.24389648 39.62598145 -2.40576172 40.91235352 C-3 44 -3 44 -5 47 C-8.01490557 48.00496852 -10.04181692 48.10335303 -13.1875 48.0625 C-14.08855469 48.05347656 -14.98960937 48.04445312 -15.91796875 48.03515625 C-16.60503906 48.02355469 -17.29210937 48.01195312 -18 48 C-18 47.34 -18 46.68 -18 46 C-16.02 45.505 -16.02 45.505 -14 45 C-14.66 44.67 -15.32 44.34 -16 44 C-16 43.01 -16 42.02 -16 41 C-17.485 41.495 -17.485 41.495 -19 42 C-20.79108913 42.04548798 -22.58374528 42.03841833 -24.375 42 C-30.958436 41.93561432 -37.44677719 42.408096 -44 43 C-44.375 40.3125 -44.375 40.3125 -44 37 C-40.80559084 33.31061051 -38.55394015 31.78439892 -33.6953125 31.29296875 C-32.17261473 31.23389858 -30.64879877 31.19912219 -29.125 31.1875 C-28.34125 31.16236328 -27.5575 31.13722656 -26.75 31.11132812 C-24.83386445 31.05290936 -22.91688207 31.02348074 -21 31 C-23.64 30.67 -26.28 30.34 -29 30 C-29.30207788 26.14850705 -29.27624851 23.59016728 -27.625 20.0625 C-23.66625724 16.95205926 -19.85640796 17.58294206 -15 18 C-15.01160156 17.07316406 -15.02320313 16.14632812 -15.03515625 15.19140625 C-15.04417969 13.99386719 -15.05320312 12.79632813 -15.0625 11.5625 C-15.07410156 10.36753906 -15.08570313 9.17257813 -15.09765625 7.94140625 C-15 5 -15 5 -14 4 C-12.35659133 3.90145345 -10.7088539 3.87027589 -9.0625 3.875 C-8.16660156 3.87242187 -7.27070313 3.86984375 -6.34765625 3.8671875 C-4 4 -4 4 -2 5 C-1.34 3.35 -0.68 1.7 0 0 Z " fill="#443D6E" transform="translate(325,188)"/>
<path d="M0 0 C17 0 17 0 24 4 C26.71981291 7.67322558 26.20055408 11.21882768 25.69140625 15.58203125 C24.56033947 19.53756986 22.39730664 20.8315064 19 23 C19.56267578 23.63615234 19.56267578 23.63615234 20.13671875 24.28515625 C30 35.58942065 30 35.58942065 30 39 C26.38715578 39.8993676 23.58984086 40.07210112 20 39 C15.88393593 35.39084718 12.9467566 30.56433788 10 26 C9.67 30.29 9.34 34.58 9 39 C6.03 39 3.06 39 0 39 C0 26.13 0 13.26 0 0 Z " fill="#2E2667" transform="translate(310,280)"/>
<path d="M0 0 C0.99 0 1.98 0 3 0 C4.76462683 3.08809695 5 4.23312136 5 8 C5.99 8 6.98 8 8 8 C7.67 9.98 7.34 11.96 7 14 C7.66 14 8.32 14 9 14 C9.37125 15.134375 9.7425 16.26875 10.125 17.4375 C10.86637873 19.3814131 10.86637873 19.3814131 12 21 C15.08369887 22.05749557 15.08369887 22.05749557 18 22 C18 22.66 18 23.32 18 24 C17.34 24 16.68 24 16 24 C16.11347619 25.97986082 16.2410935 27.95891598 16.375 29.9375 C16.44460937 31.03964844 16.51421875 32.14179688 16.5859375 33.27734375 C16.72257812 34.17582031 16.85921875 35.07429688 17 36 C19.50139602 37.25069801 21.27392691 37.13302467 24.0625 37.125 C24.96097656 37.12757813 25.85945313 37.13015625 26.78515625 37.1328125 C28.97378893 37.24738223 28.97378893 37.24738223 30 36 C32.30895269 35.78982984 34.62273969 35.63160059 36.9375 35.5 C41.63307996 35.39353799 41.63307996 35.39353799 46 34 C48.37402501 33.92883618 50.75000677 33.91590915 53.125 33.9375 C54.40632813 33.94652344 55.68765625 33.95554688 57.0078125 33.96484375 C58.48894531 33.98224609 58.48894531 33.98224609 60 34 C60 31.03 60 28.06 60 25 C60.33 25 60.66 25 61 25 C61 27.97 61 30.94 61 34 C65.62 33.67 70.24 33.34 75 33 C75 33.99 75 34.98 75 36 C76.98 36.495 76.98 36.495 79 37 C77.02 37.33 75.04 37.66 73 38 C73 38.66 73 39.32 73 40 C69.69779697 40.32227642 66.39551311 40.64362113 63.09301758 40.96289062 C60.2638617 41.23738352 57.43579871 41.52091704 54.6081543 41.81054688 C48.22468849 42.45634603 41.88149266 43.05776582 35.46484375 43.2578125 C26.2386692 43.60784027 19.57114444 43.89150922 12.75 50.625 C11.83515251 51.62557052 10.93269976 52.63770886 10.046875 53.6640625 C9.37140625 54.43492187 8.6959375 55.20578125 8 56 C7.34 56 6.68 56 6 56 C6 57.98 6 59.96 6 62 C5.34 62 4.68 62 4 62 C4 62.66 4 63.32 4 64 C3.34 64 2.68 64 2 64 C2 63.34 2 62.68 2 62 C0.515 62.495 0.515 62.495 -1 63 C-2 62 -2 62 -2.09765625 60.15234375 C-2.06510417 58.1015625 -2.03255208 56.05078125 -2 54 C-1.34 54 -0.68 54 0 54 C0.2475 53.4225 0.495 52.845 0.75 52.25 C2.18299988 49.67060021 3.78424676 47.93878408 6 46 C6.66 46 7.32 46 8 46 C8 45.34 8 44.68 8 44 C9.98 43.505 9.98 43.505 12 43 C11.37942344 40.91534475 10.7533655 38.83232072 10.125 36.75 C9.77695313 35.58984375 9.42890625 34.4296875 9.0703125 33.234375 C8.1441536 30.14964645 8.1441536 30.14964645 6.96875 28.01171875 C5.57876513 25.12525823 5.03617177 22.19137852 4.375 19.0625 C4.11460937 17.85722656 3.85421875 16.65195313 3.5859375 15.41015625 C3.08692861 12.50592451 2.87756822 9.93279765 3 7 C2.34 7 1.68 7 1 7 C0.67 4.69 0.34 2.38 0 0 Z " fill="#2E276A" transform="translate(234,196)"/>
<path d="M0 0 C4.95 0 9.9 0 15 0 C15 3.96 15 7.92 15 12 C12.36 12.33 9.72 12.66 7 13 C6.814375 13.928125 6.814375 13.928125 6.625 14.875 C6 17 6 17 4 19 C3.59952556 21.32275177 3.2602896 23.65739357 3 26 C5.97851562 25.90234375 5.97851562 25.90234375 8.95703125 25.8046875 C11 26 11 26 14 28 C13.40985107 28.02505615 12.81970215 28.0501123 12.21166992 28.07592773 C9.53673186 28.19200052 6.8621362 28.31467572 4.1875 28.4375 C2.7943457 28.49647461 2.7943457 28.49647461 1.37304688 28.55664062 C0.48037109 28.59853516 -0.41230469 28.64042969 -1.33203125 28.68359375 C-2.15421143 28.72025146 -2.9763916 28.75690918 -3.82348633 28.79467773 C-6.17905178 28.93427772 -6.17905178 28.93427772 -9 30 C-9.495 31.485 -9.495 31.485 -10 33 C-10.66 33 -11.32 33 -12 33 C-12 34.98 -12 36.96 -12 39 C-16.54744972 40.51581657 -21.18000171 40.44588967 -25.9453125 40.71875 C-28.87318848 40.66008904 -28.87318848 40.66008904 -30 42 C-31.62139437 42.12494616 -33.24884122 42.17571624 -34.875 42.1875 C-35.75929688 42.20167969 -36.64359375 42.21585938 -37.5546875 42.23046875 C-40 42 -40 42 -43 40 C-43.29296875 37.1796875 -43.29296875 37.1796875 -43.1875 33.875 C-43.16042969 32.77929688 -43.13335937 31.68359375 -43.10546875 30.5546875 C-43.07066406 29.71164063 -43.03585938 28.86859375 -43 28 C-42.34 28 -41.68 28 -41 28 C-41 27.34 -41 26.68 -41 26 C-32.42 26 -23.84 26 -15 26 C-15 22.37 -15 18.74 -15 15 C-14.01 15 -13.02 15 -12 15 C-12 18.63 -12 22.26 -12 26 C-8.04 26 -4.08 26 0 26 C-0.08378906 25.12859375 -0.16757812 24.2571875 -0.25390625 23.359375 C-0.9359163 15.38244727 -0.87341269 7.95776008 0 0 Z " fill="#4E1B53" transform="translate(293,192)"/>
<path d="M0 0 C2.97 0 5.94 0 9 0 C23 31.75163399 23 31.75163399 23 39 C20.03 39 17.06 39 14 39 C13.01 35.535 13.01 35.535 12 32 C7.05 31.67 2.1 31.34 -3 31 C-3.495 33.475 -3.495 33.475 -4 36 C-4.33 36.99 -4.66 37.98 -5 39 C-7.97 39 -10.94 39 -14 39 C-12.8122662 32.11114394 -10.49459274 26.24243192 -7.6640625 19.86328125 C-4.81190572 13.36219079 -2.44046092 6.66366988 0 0 Z " fill="#30286B" transform="translate(284,280)"/>
<path d="M0 0 C2.64 0 5.28 0 8 0 C11.30199356 5.9435884 12.95518663 11.29119838 14 18 C14.66 18 15.32 18 16 18 C16.7945261 20.18646304 17.5854858 22.37422221 18.375 24.5625 C19.03628906 26.38974609 19.03628906 26.38974609 19.7109375 28.25390625 C20.9372554 31.81766039 21.99981127 35.36847363 23 39 C20.03 39 17.06 39 14 39 C13.34 36.36 12.68 33.72 12 31 C6.39 31 0.78 31 -5 31 C-5.66 32.98 -6.32 34.96 -7 37 C-8.98 37 -10.96 37 -13 37 C-11.81789858 24.11509453 -5.92756052 11.39057868 0 0 Z " fill="#F30809" transform="translate(182,280)"/>
<path d="M0 0 C17 0 17 0 24 3 C26.91674786 6.29310242 27.64729665 9.52300877 27.48828125 13.93359375 C26.57954896 17.77934881 24.05284584 20.5843307 21 23 C18.21885016 23.98685962 15.68481073 24.11141351 12.75 24.0625 C10.89375 24.0315625 10.89375 24.0315625 9 24 C9 28.95 9 33.9 9 39 C6.03 39 3.06 39 0 39 C0 26.13 0 13.26 0 0 Z " fill="#F80304" transform="translate(207,280)"/>
<path d="M0 0 C-0.52268466 2.76276177 -1.10869587 5.3260876 -2 8 C-2.88042969 7.89300781 -3.76085937 7.78601563 -4.66796875 7.67578125 C-5.82941406 7.55589844 -6.99085938 7.43601562 -8.1875 7.3125 C-9.33605469 7.18488281 -10.48460937 7.05726563 -11.66796875 6.92578125 C-15.41936025 7.00934097 -17.03769472 7.76753805 -20 10 C-22.32465134 12.98883744 -22.46810806 16.29690775 -22.3984375 20.03125 C-21.72577975 23.35497067 -19.54922275 24.94818657 -17 27 C-16.67 27.33 -16.34 27.66 -16 28 C-11.26774995 28.33243079 -6.60711442 28.18893275 -2 27 C-0.66545464 29.1980747 0.02787435 30.52613603 -0.125 33.125 C-1.32000516 35.68572535 -2.37490266 35.98933753 -5 37 C-11.60294598 37.65688222 -18.50753462 38.15283968 -24 34 C-28.90852474 28.97262478 -32.29073533 24.99676128 -32.375 17.75 C-32.29033544 11.91465775 -31.6325905 8.5666852 -28 4 C-27.01 3.67 -26.02 3.34 -25 3 C-25 2.34 -25 1.68 -25 1 C-16.9056585 -2.73584992 -8.29454376 -3.80608864 0 0 Z " fill="#332B6B" transform="translate(269,282)"/>
<path d="M0 0 C8.91 0 17.82 0 27 0 C27 2.64 27 5.28 27 8 C24.03 8 21.06 8 18 8 C18 18.23 18 28.46 18 39 C15.03 39 12.06 39 9 39 C9 28.77 9 18.54 9 8 C6.03 8 3.06 8 0 8 C0 5.36 0 2.72 0 0 Z " fill="#38306F" transform="translate(341,280)"/>
<path d="M0 0 C0.33 0.66 0.66 1.32 1 2 C1.66 2 2.32 2 3 2 C4.6875 3.6875 4.6875 3.6875 6 6 C5.82210938 6.76699219 5.64421875 7.53398437 5.4609375 8.32421875 C4.89442866 11.61285057 5.5713144 13.11663171 6.9375 16.125 C9 20.72542373 9 20.72542373 9 24 C7.02 24.33 5.04 24.66 3 25 C3.33 25.66 3.66 26.32 4 27 C-0.75 31 -0.75 31 -3 31 C-3.2165625 32.1446875 -3.2165625 32.1446875 -3.4375 33.3125 C-4 36 -4 36 -5 39 C-7.97 39 -10.94 39 -14 39 C-12.8122662 32.11114394 -10.49459274 26.24243192 -7.6640625 19.86328125 C-4.81190572 13.36219079 -2.44046092 6.66366988 0 0 Z " fill="#2D246A" transform="translate(284,280)"/>
<path d="M0 0 C10.28304538 -0.02312376 20.56608462 -0.04091525 30.84915066 -0.05181217 C35.6234828 -0.05704093 40.39779721 -0.06413844 45.17211914 -0.07543945 C49.77566262 -0.0862686 54.37918899 -0.09227689 58.98274422 -0.09487724 C60.74309623 -0.09673144 62.50344726 -0.10035196 64.26379204 -0.10573006 C66.72072277 -0.11294086 69.17758195 -0.11399093 71.63452148 -0.11352539 C72.73719109 -0.1189183 72.73719109 -0.1189183 73.86213684 -0.12442017 C78.88594784 -0.11405216 78.88594784 -0.11405216 80 1 C80.14115161 3.67058851 80.04247107 6.32432238 80 9 C79.01 7.515 79.01 7.515 78 6 C75.10391601 5.63501966 75.10391601 5.63501966 71.875 5.8125 C68.966875 5.9053125 68.966875 5.9053125 66 6 C66 10.29 66 14.58 66 19 C63.00468461 19.99843846 61.82744268 20.00732761 58.8125 19.5625 C57.554375 19.376875 56.29625 19.19125 55 19 C55.66 18.34 56.32 17.68 57 17 C58.98 17 60.96 17 63 17 C63 13.04 63 9.08 63 5 C62.04005127 5.00507568 61.08010254 5.01015137 60.09106445 5.01538086 C50.81991791 5.04896957 41.56464386 4.91716429 32.2980957 4.62768555 C30.17083865 4.56198542 28.04346397 4.50250249 25.91601562 4.44335938 C5.5356897 3.8452299 5.5356897 3.8452299 0 2 C0 1.34 0 0.68 0 0 Z " fill="#342665" transform="translate(245,187)"/>
<path d="M0 0 C7.875 0.875 7.875 0.875 9 2 C8.71269945 4.33944736 8.38063221 6.6739143 8 9 C8.33 8.67 8.66 8.34 9 8 C9.33 8.66 9.66 9.32 10 10 C10.99 10 11.98 10 13 10 C13.6875 11.8125 13.6875 11.8125 14 14 C12.51953125 15.63671875 12.51953125 15.63671875 11 17 C11.71027344 17.74765625 12.42054688 18.4953125 13.15234375 19.265625 C14.08110976 20.26006134 15.00947425 21.2548728 15.9375 22.25 C16.40607422 22.74113281 16.87464844 23.23226563 17.35742188 23.73828125 C19.79168774 26.36518686 21.59326218 28.36532157 22 32 C18.38715578 32.8993676 15.58984086 33.07210112 12 32 C7.88393593 28.39084718 4.9467566 23.56433788 2 19 C1.67 23.29 1.34 27.58 1 32 C0.67 32 0.34 32 0 32 C-0.19425873 29.20865148 -0.38069517 26.41716313 -0.5625 23.625 C-0.61857422 22.8309375 -0.67464844 22.036875 -0.73242188 21.21875 C-1.11328125 15.2265625 -1.11328125 15.2265625 0 13 C-0.66 13 -1.32 13 -2 13 C-1.84660156 12.43796875 -1.69320313 11.8759375 -1.53515625 11.296875 C-0.98639581 8.94161122 -0.68502401 6.65451896 -0.4375 4.25 C-0.35371094 3.45078125 -0.26992188 2.6515625 -0.18359375 1.828125 C-0.12300781 1.22484375 -0.06242187 0.6215625 0 0 Z " fill="#332A6D" transform="translate(318,287)"/>
<path d="M0 0 C4.95 0 9.9 0 15 0 C15 3.96 15 7.92 15 12 C12.36 12.33 9.72 12.66 7 13 C6.87625 13.61875 6.7525 14.2375 6.625 14.875 C6 17 6 17 4 19 C3.59952556 21.32275177 3.2602896 23.65739357 3 26 C5.97851562 25.90234375 5.97851562 25.90234375 8.95703125 25.8046875 C11 26 11 26 14 28 C6.41 28 -1.18 28 -9 28 C-9 27.67 -9 27.34 -9 27 C-6.03 26.67 -3.06 26.34 0 26 C-0.08378906 25.12859375 -0.16757812 24.2571875 -0.25390625 23.359375 C-0.9359163 15.38244727 -0.87341269 7.95776008 0 0 Z " fill="#5C2857" transform="translate(293,192)"/>
<path d="M0 0 C0.99 0.66 1.98 1.32 3 2 C3 2.66 3 3.32 3 4 C3.66 4 4.32 4 5 4 C5 7.3 5 10.6 5 14 C3.35 14.33 1.7 14.66 0 15 C-0.33 16.32 -0.66 17.64 -1 19 C-4.1875 19.3125 -4.1875 19.3125 -8 19 C-10.63016161 16.8272578 -12.47336894 15.05326212 -14 12 C-14.5801105 5.73480663 -14.5801105 5.73480663 -12.125 2.625 C-8.2910535 -0.30684144 -4.72988392 -0.5526003 0 0 Z " fill="#FCF1F1" transform="translate(200,142)"/>
<path d="M0 0 C0.33 0 0.66 0 1 0 C1.32417212 9.50904899 0.33418593 18.61304896 -1 28 C-1.66 28 -2.32 28 -3 28 C-3.33 28.66 -3.66 29.32 -4 30 C-4.99 30 -5.98 30 -7 30 C-6.67 26.04 -6.34 22.08 -6 18 C-8.64 18 -11.28 18 -14 18 C-15.31164842 15.37670316 -15.13262846 13.36301375 -15.125 10.4375 C-15.12757813 9.44621094 -15.13015625 8.45492187 -15.1328125 7.43359375 C-15 5 -15 5 -14 4 C-12.35659133 3.90145345 -10.7088539 3.87027589 -9.0625 3.875 C-8.16660156 3.87242187 -7.27070313 3.86984375 -6.34765625 3.8671875 C-4 4 -4 4 -2 5 C-1.34 3.35 -0.68 1.7 0 0 Z " fill="#332D67" transform="translate(325,188)"/>
<path d="M0 0 C4.75 0.875 4.75 0.875 7 2 C7 2.66 7 3.32 7 4 C7.99 4.33 8.98 4.66 10 5 C10.7230444 11.86892178 10.7230444 11.86892178 8.6640625 15.08984375 C7.16989578 16.80497879 5.64681923 18.43160073 4 20 C2.68 19.67 1.36 19.34 0 19 C0 17.68 0 16.36 0 15 C-1.27875 15.20625 -2.5575 15.4125 -3.875 15.625 C-6.0546875 15.9765625 -6.0546875 15.9765625 -8 16 C-10 14 -10 14 -10.23046875 11.65234375 C-10.21628906 10.75644531 -10.20210937 9.86054688 -10.1875 8.9375 C-10.18105469 8.03902344 -10.17460937 7.14054687 -10.16796875 6.21484375 C-10 4 -10 4 -9 3 C-7.15108054 2.76636119 -5.29511969 2.58696365 -3.4375 2.4375 C-2.42558594 2.35371094 -1.41367188 2.26992188 -0.37109375 2.18359375 C0.41136719 2.12300781 1.19382813 2.06242187 2 2 C1.34 1.34 0.68 0.68 0 0 Z M2 7 C1.31527335 8.88764903 1.31527335 8.88764903 0.875 11.0625 C0.70742187 11.79597656 0.53984375 12.52945312 0.3671875 13.28515625 C0.24601563 13.85105469 0.12484375 14.41695313 0 15 C0.99 14.34 1.98 13.68 3 13 C3 12.34 3 11.68 3 11 C3.66 11 4.32 11 5 11 C5 9.35 5 7.7 5 6 C3.7763932 5.9254644 3.7763932 5.9254644 2 7 Z " fill="#EE1113" transform="translate(224,283)"/>
<path d="M0 0 C-0.79664063 0.67095703 -0.79664063 0.67095703 -1.609375 1.35546875 C-5.50469313 4.68923554 -8.83053296 7.95619723 -12 12 C-16.50028259 16.77302699 -21.76705969 17.17039674 -28 18 C-28.5 15.4375 -28.5 15.4375 -28 12 C-25.61997128 9.30026592 -22.82608031 7.21238768 -20 5 C-19.24976563 4.24783203 -19.24976563 4.24783203 -18.484375 3.48046875 C-14.75771148 -0.23548596 -11.38261701 -0.69532651 -6.3671875 -1.0546875 C-4.07860414 -1.00181594 -2.18578239 -0.65472744 0 0 Z " fill="#F13B3C" transform="translate(268,240)"/>
<path d="M0 0 C2 1 2 1 2 1 Z M-3 1 C-2.01 1 -1.02 1 0 1 C-0.33 2.32 -0.66 3.64 -1 5 C-0.01 4.67 0.98 4.34 2 4 C2 5.32 2 6.64 2 8 C7.61 8 13.22 8 19 8 C19 9.98 19 11.96 19 14 C9.43 14 -0.14 14 -10 14 C-9.67 12.35 -9.34 10.7 -9 9 C-8.34 9 -7.68 9 -7 9 C-6.67 7.35 -6.34 5.7 -6 4 C-5.34 4 -4.68 4 -4 4 C-3.67 3.01 -3.34 2.02 -3 1 Z " fill="#F50405" transform="translate(146,304)"/>
<path d="M0 0 C0.66 0 1.32 0 2 0 C2 0.66 2 1.32 2 2 C2.804375 2.2475 3.60875 2.495 4.4375 2.75 C7 4 7 4 7.8125 5.6875 C8.06481876 8.79943138 8.06000419 11.87978227 8 15 C7.34 15 6.68 15 6 15 C5.67 15.99 5.34 16.98 5 18 C2.2447481 18.76534775 0.55481136 19.19022104 -2.1875 18.25 C-4 17 -4 17 -6 14 C-6.375 11.0625 -6.375 11.0625 -6 8 C-4 5.625 -4 5.625 -2 4 C-2.99 3.01 -3.98 2.02 -5 1 C-3.35 1.33 -1.7 1.66 0 2 C0 1.34 0 0.68 0 0 Z " fill="#38316C" transform="translate(240,260)"/>
<path d="M0 0 C1.74949772 2.62424658 2.65389981 4.55727216 3.625 7.5 C3.88539063 8.2734375 4.14578125 9.046875 4.4140625 9.84375 C5 12 5 12 5 15 C5.66 15 6.32 15 7 15 C7.99 18.3 8.98 21.6 10 25 C9.34 25 8.68 25 8 25 C8 24.01 8 23.02 8 22 C7.01 22 6.02 22 5 22 C5 20.02 5 18.04 5 16 C4.34 16.33 3.68 16.66 3 17 C2.855625 17.66 2.71125 18.32 2.5625 19 C2.376875 19.66 2.19125 20.32 2 21 C-0.75078884 21.91692961 -2.35948913 22.10886083 -5.1875 22.0625 C-7.0746875 22.0315625 -7.0746875 22.0315625 -9 22 C-8.45144652 17.428721 -7.58255197 13.32564205 -6 9 C-4.35 9 -2.7 9 -1 9 C-0.67 6.03 -0.34 3.06 0 0 Z " fill="#ED1818" transform="translate(191,283)"/>
<path d="M0 0 C1.08162415 -0.00953201 2.16324829 -0.01906403 3.27764893 -0.02888489 C5.03851837 -0.02751778 5.03851837 -0.02751778 6.83496094 -0.02612305 C8.03868347 -0.03040817 9.24240601 -0.0346933 10.48260498 -0.03910828 C13.03478363 -0.04486145 15.58697869 -0.04534462 18.13916016 -0.04101562 C22.03934922 -0.03786601 25.93877257 -0.06126776 29.83886719 -0.08666992 C32.31673081 -0.08894387 34.79459648 -0.08964597 37.27246094 -0.08862305 C39.021185 -0.10243767 39.021185 -0.10243767 40.80523682 -0.11653137 C51.25983761 -0.0570198 51.25983761 -0.0570198 55.81933594 3.2746582 C56.31433594 4.7596582 56.31433594 4.7596582 56.81933594 6.2746582 C58.45302203 7.64296067 58.45302203 7.64296067 60.38183594 8.8371582 C62.32324219 10.09106445 62.32324219 10.09106445 63.81933594 11.2746582 C63.81933594 11.9346582 63.81933594 12.5946582 63.81933594 13.2746582 C60.44433594 12.9621582 60.44433594 12.9621582 56.81933594 12.2746582 C54.81933594 9.2746582 54.81933594 9.2746582 54.81933594 5.2746582 C51.08348841 3.56172025 48.11773647 3.01033537 44.01928711 2.95581055 C42.8784819 2.93594086 41.7376767 2.91607117 40.56230164 2.89559937 C39.34130264 2.88404816 38.12030365 2.87249695 36.86230469 2.8605957 C35.60420486 2.84122955 34.34610504 2.8218634 33.04988098 2.8019104 C29.71759275 2.75232744 26.38541263 2.71102722 23.05297852 2.67376709 C19.64752354 2.63364196 16.24223404 2.58258861 12.83691406 2.5324707 C6.16449463 2.43648332 -0.50799721 2.3514165 -7.18066406 2.2746582 C-4.60209244 -0.30391342 -3.58524835 0.01730551 0 0 Z M53.81933594 11.2746582 C54.80933594 11.6046582 55.79933594 11.9346582 56.81933594 12.2746582 C56.81933594 12.9346582 56.81933594 13.5946582 56.81933594 14.2746582 C55.82933594 13.9446582 54.83933594 13.6146582 53.81933594 13.2746582 C53.81933594 12.6146582 53.81933594 11.9546582 53.81933594 11.2746582 Z " fill="#DB4343" transform="translate(186.1806640625,128.725341796875)"/>
<path d="M0 0 C0.66 0 1.32 0 2 0 C2 0.99 2 1.98 2 3 C4.64 2.67 7.28 2.34 10 2 C8.33333333 3.66666667 6.66666667 5.33333333 5 7 C4.113125 7.928125 3.22625 8.85625 2.3125 9.8125 C0 12 0 12 -2 12 C-2 13.98 -2 15.96 -2 18 C-2.66 18 -3.32 18 -4 18 C-4 18.66 -4 19.32 -4 20 C-4.66 20 -5.32 20 -6 20 C-6 19.34 -6 18.68 -6 18 C-6.99 18.33 -7.98 18.66 -9 19 C-10 18 -10 18 -10.09765625 16.15234375 C-10.06510417 14.1015625 -10.03255208 12.05078125 -10 10 C-9.34 10 -8.68 10 -8 10 C-7.7525 9.4225 -7.505 8.845 -7.25 8.25 C-5.81700012 5.67060021 -4.21575324 3.93878408 -2 2 C-1.34 2 -0.68 2 0 2 C0 1.34 0 0.68 0 0 Z " fill="#332362" transform="translate(242,240)"/>
<path d="M0 0 C3 1 3 1 5 4 C5.45861352 7.59247257 5.48034866 9.31642691 3.375 12.3125 C0.56041967 14.31233339 -1.59319587 14.69029053 -5 15 C-7.58913266 12.24904655 -8.91830834 10.68076384 -9.375 6.875 C-9 4 -9 4 -7 1 C-4.4375 0.75 -4.4375 0.75 -2 1 C-1.67 1.33 -1.34 1.66 -1 2 C-0.67 1.34 -0.34 0.68 0 0 Z " fill="#3D3668" transform="translate(313,264)"/>
<path d="M0 0 C0.89778361 2.69335083 1.56897081 5.1983103 2 8 C1.67 8.66 1.34 9.32 1 10 C0.34 10 -0.32 10 -1 10 C-2.25010279 12.87305069 -2.25010279 12.87305069 -1.4375 15.375 C-0.90892069 18.54647588 -1.61624799 20.15109881 -3 23 C-5.97 23 -8.94 23 -12 23 C-10.80628441 16.63351684 -9.10124153 11.68560947 -6 6 C-4.35 6 -2.7 6 -1 6 C-0.67 4.02 -0.34 2.04 0 0 Z " fill="#2C2368" transform="translate(282,296)"/>
<path d="M0 0 C2.89920348 3.19912109 2.87887139 6.7964788 2.8125 11 C2.125 14 2.125 14 0.8125 16 C-1.3125 16.8125 -1.3125 16.8125 -3.1875 17 C-2.8575 16.01 -2.5275 15.02 -2.1875 14 C-4.1675 14 -6.1475 14 -8.1875 14 C-7.8575 11.36 -7.5275 8.72 -7.1875 6 C-9.4975 5.34 -11.8075 4.68 -14.1875 4 C-14.1875 3.67 -14.1875 3.34 -14.1875 3 C-10.85416667 3 -7.52083333 3 -4.1875 3 C-3.8575 3.99 -3.5275 4.98 -3.1875 6 C-2.8575 4.68 -2.5275 3.36 -2.1875 2 C-5.8175 1.34 -9.4475 0.68 -13.1875 0 C-13.1875 -0.33 -13.1875 -0.66 -13.1875 -1 C-7.92815488 -1.91027127 -4.79651893 -2.19269437 0 0 Z " fill="#322B69" transform="translate(333.1875,283)"/>
<path d="M0 0 C3.96 0 7.92 0 12 0 C12 3.96 12 7.92 12 12 C8.04 12 4.08 12 0 12 C0 8.04 0 4.08 0 0 Z " fill="#E33842" transform="translate(266,220)"/>
<path d="M0 0 C3.96 0 7.92 0 12 0 C12 3.96 12 7.92 12 12 C8.04 12 4.08 12 0 12 C0 8.04 0 4.08 0 0 Z " fill="#EA3F47" transform="translate(281,206)"/>
<path d="M0 0 C3.96 0 7.92 0 12 0 C12 3.96 12 7.92 12 12 C8.04 12 4.08 12 0 12 C0 8.04 0 4.08 0 0 Z " fill="#ED353B" transform="translate(266,206)"/>
<path d="M0 0 C3.96 0 7.92 0 12 0 C12 3.96 12 7.92 12 12 C8.04 12 4.08 12 0 12 C0 8.04 0 4.08 0 0 Z " fill="#EA363F" transform="translate(281,192)"/>
<path d="M0 0 C3.96 0 7.92 0 12 0 C12 3.96 12 7.92 12 12 C8.04 12 4.08 12 0 12 C0 8.04 0 4.08 0 0 Z " fill="#FD3130" transform="translate(266,192)"/>
<path d="M0 0 C3.96 0 7.92 0 12 0 C12.09765625 8.49609375 12.09765625 8.49609375 12 11 C11 12 11 12 8.93359375 12.09765625 C8.10988281 12.08605469 7.28617187 12.07445312 6.4375 12.0625 C5.61121094 12.05347656 4.78492188 12.04445312 3.93359375 12.03515625 C3.29550781 12.02355469 2.65742188 12.01195312 2 12 C-0.40201504 7.80120206 -0.15864149 4.75924459 0 0 Z " fill="#EA363F" transform="translate(251,221)"/>
<path d="M0 0 C17 0 17 0 24 3 C25.4375 5.1875 25.4375 5.1875 26 7 C25.34 7 24.68 7 24 7 C24 6.34 24 5.68 24 5 C22.2984375 4.5359375 22.2984375 4.5359375 20.5625 4.0625 C17 3 17 3 16 2 C13.65012738 1.76472227 11.29443961 1.58613583 8.9375 1.4375 C7.64714844 1.35371094 6.35679687 1.26992188 5.02734375 1.18359375 C3.52880859 1.09271484 3.52880859 1.09271484 2 1 C2.0407666 1.9787207 2.0815332 2.95744141 2.12353516 3.96582031 C2.27220835 7.60330872 2.40676814 11.24120691 2.53710938 14.87939453 C2.59544307 16.45278381 2.65758355 18.02603682 2.72363281 19.59912109 C2.81800832 21.86270329 2.89860024 24.12642535 2.9765625 26.390625 C3.00875885 27.09181458 3.0409552 27.79300415 3.0741272 28.51544189 C3.18715539 32.21574677 3.061847 34.86148886 1 38 C3.31 38 5.62 38 8 38 C8 33.38 8 28.76 8 24 C8.33 24 8.66 24 9 24 C9 28.95 9 33.9 9 39 C6.03 39 3.06 39 0 39 C0 26.13 0 13.26 0 0 Z " fill="#D62022" transform="translate(207,280)"/>
<path d="M0 0 C0 3.96 0 7.92 0 12 C-3.96 12 -7.92 12 -12 12 C-12.30788712 8.07443924 -12.30854114 5.6042264 -10.5 2.0625 C-6.88822409 -0.91721513 -4.58919421 -0.38243285 0 0 Z " fill="#FAF7F9" transform="translate(308,206)"/>
<path d="M0 0 C3.63 0 7.26 0 11 0 C11 3.63 11 7.26 11 11 C7.37 11 3.74 11 0 11 C0 7.37 0 3.74 0 0 Z " fill="#F43538" transform="translate(252,192)"/>
<path d="M0 0 C7.26 0 14.52 0 22 0 C22 0.66 22 1.32 22 2 C15.07 1.67 8.14 1.34 1 1 C1 13.87 1 26.74 1 40 C3.97 40 6.94 40 10 40 C10 40.33 10 40.66 10 41 C3.4 41 -3.2 41 -10 41 C-10 40.67 -10 40.34 -10 40 C-7.03 40 -4.06 40 -1 40 C-1.28875 39.40832031 -1.5775 38.81664062 -1.875 38.20703125 C-5.56239016 30.35852373 -5.56239016 30.35852373 -5 26 C-4.67 26.99 -4.34 27.98 -4 29 C-3.01 28.67 -2.02 28.34 -1 28 C-0.67 18.76 -0.34 9.52 0 0 Z " fill="#FEE1E1" transform="translate(206,279)"/>
<path d="M0 0 C8.58 0 17.16 0 26 0 C26 1.65 26 3.3 26 5 C22.37 5.33 18.74 5.66 15 6 C15 5.34 15 4.68 15 4 C15.99 3.67 16.98 3.34 18 3 C15.69 3.33 13.38 3.66 11 4 C11 4.99 11 5.98 11 7 C5.25 6.25 5.25 6.25 3 4 C3 4.66 3 5.32 3 6 C2.01 6 1.02 6 0 6 C0 4.02 0 2.04 0 0 Z " fill="#2E256D" transform="translate(341,280)"/>
<path d="M0 0 C0.99 0 1.98 0 3 0 C4.76462683 3.08809695 5 4.23312136 5 8 C5.99 8 6.98 8 8 8 C7.67 9.98 7.34 11.96 7 14 C7.66 14 8.32 14 9 14 C11.29342747 19.89738492 12.34548714 24.66606918 12 31 C9.43135272 29.71567636 9.053461 28.63365249 8 26 C8 24.68 8 23.36 8 22 C7.34 22 6.68 22 6 22 C5.491217 20.44033782 4.99336531 18.87710759 4.5 17.3125 C4.2215625 16.44238281 3.943125 15.57226562 3.65625 14.67578125 C3.00149195 12.00608323 2.88168505 9.73603316 3 7 C2.34 7 1.68 7 1 7 C0.67 4.69 0.34 2.38 0 0 Z " fill="#2C256E" transform="translate(234,196)"/>
<path d="M0 0 C2.02408755 0.09002398 4.04544287 0.24641038 6.0625 0.4375 C7.71958984 0.59025391 7.71958984 0.59025391 9.41015625 0.74609375 C10.26480469 0.82988281 11.11945313 0.91367187 12 1 C11.47731534 3.76276177 10.89130413 6.3260876 10 9 C8.66195313 8.89171875 8.66195313 8.89171875 7.296875 8.78125 C5.54117187 8.64203125 5.54117187 8.64203125 3.75 8.5 C2.58984375 8.4071875 1.4296875 8.314375 0.234375 8.21875 C-2.17268658 8.05595356 -4.58743951 8 -7 8 C-6.34 6.35 -5.68 4.7 -5 3 C-4.01 3 -3.02 3 -2 3 C-1.67 2.34 -1.34 1.68 -1 1 C-0.67 0.67 -0.34 0.34 0 0 Z " fill="#2C2364" transform="translate(257,281)"/>
<path d="M0 0 C3.3 0 6.6 0 10 0 C10 4.29 10 8.58 10 13 C7.69 13 5.38 13 3 13 C0.99308198 8.06632653 0 5.44479395 0 0 Z " fill="#CB3D52" transform="translate(238,191)"/>
<path d="M0 0 C4.78898976 0.43304695 6.64174987 2.2505288 9.75 5.8125 C10.52859375 6.68519531 11.3071875 7.55789063 12.109375 8.45703125 C13.8423211 10.78791536 14.60424259 12.17033451 15 15 C11.62110327 15.28527271 8.36884909 15.44483998 5 15 C2.39921448 12.16973341 2 10.82254857 2 7 C2.66 7 3.32 7 4 7 C2.02 3.535 2.02 3.535 0 0 Z " fill="#3D3472" transform="translate(325,304)"/>
<path d="M0 0 C3.3 0 6.6 0 10 0 C10 3.63 10 7.26 10 11 C6.7 11 3.4 11 0 11 C0 7.37 0 3.74 0 0 Z " fill="#ECECF2" transform="translate(310,193)"/>
<path d="M0 0 C0.33 1.32 0.66 2.64 1 4 C0.34 4 -0.32 4 -1 4 C-1.33 5.65 -1.66 7.3 -2 9 C7.57 9 17.14 9 27 9 C27 7.02 27 5.04 27 3 C21.39 3 15.78 3 10 3 C10.33 2.01 10.66 1.02 11 0 C11 0.66 11 1.32 11 2 C16.61 2 22.22 2 28 2 C28.495 4.97 28.495 4.97 29 8 C29.66 6.35 30.32 4.7 31 3 C31.495 4.485 31.495 4.485 32 6 C31.67 6.66 31.34 7.32 31 8 C32.98 8 34.96 8 37 8 C37.66 6.02 38.32 4.04 39 2 C40 5 40 5 38 10 C23.81 10 9.62 10 -5 10 C-3.51799926 6.29499816 -2.091496 3.32738 0 0 Z " fill="#DF4243" transform="translate(138,309)"/>
<path d="M0 0 C3.96 0 7.92 0 12 0 C12 2.64 12 5.28 12 8 C9.47524538 9.26237731 7.68799534 9.09856404 4.875 9.0625 C3.96492188 9.05347656 3.05484375 9.04445312 2.1171875 9.03515625 C1.41851562 9.02355469 0.71984375 9.01195312 0 9 C0 6.03 0 3.06 0 0 Z " fill="#F5F4F8" transform="translate(296,221)"/>
<path d="M0 0 C0.66 0.66 1.32 1.32 2 2 C-0.97 1.67 -3.94 1.34 -7 1 C-7.33 1.99 -7.66 2.98 -8 4 C-9.32 4 -10.64 4 -12 4 C-12.66 5.65 -13.32 7.3 -14 9 C-13.34 9.33 -12.68 9.66 -12 10 C-14 12 -16 14 -18 16 C-17.67 13.36 -17.34 10.72 -17 8 C-19.31 8 -21.62 8 -24 8 C-23.34 7.01 -22.68 6.02 -22 5 C-21.34 5 -20.68 5 -20 5 C-20 4.34 -20 3.68 -20 3 C-13.38560363 -0.05279832 -7.27653392 -0.8619894 0 0 Z " fill="#3B3370" transform="translate(264,280)"/>
<path d="M0 0 C0 3.3 0 6.6 0 10 C-5.94 10.495 -5.94 10.495 -12 11 C-12 5 -12 5 -9.375 2.125 C-5.779961 -0.13854307 -4.14524671 -0.49348175 0 0 Z " fill="#F5F0F4" transform="translate(293,220)"/>
<path d="M0 0 C2.97 0 5.94 0 9 0 C9.08159574 4.16138263 8.98248524 7.9472484 8 12 C5.36 12 2.72 12 0 12 C0 8.04 0 4.08 0 0 Z " fill="#E9E8F1" transform="translate(310,206)"/>
<path d="M0 0 C0.99 0 1.98 0 3 0 C3 3.63 3 7.26 3 11 C5.97 11 8.94 11 12 11 C10.71034824 12.37562854 9.37310707 13.70766393 8 15 C7.34 15 6.68 15 6 15 C5.67 15.99 5.34 16.98 5 18 C4.34 18 3.68 18 3 18 C3 19.98 3 21.96 3 24 C2.01 24 1.02 24 0 24 C0 16.08 0 8.16 0 0 Z " fill="#572659" transform="translate(278,207)"/>
<path d="M0 0 C0.66 0.99 1.32 1.98 2 3 C5.06556598 3.73343428 5.06556598 3.73343428 8 4 C8 4.66 8 5.32 8 6 C7.34 6 6.68 6 6 6 C6 8.64 6 11.28 6 14 C5.01 14 4.02 14 3 14 C3.08378906 14.69867188 3.16757813 15.39734375 3.25390625 16.1171875 C3.40666016 17.48230469 3.40666016 17.48230469 3.5625 18.875 C3.66691406 19.77992188 3.77132812 20.68484375 3.87890625 21.6171875 C4 24 4 24 3 26 C2.01 25.67 1.02 25.34 0 25 C0.66 25 1.32 25 2 25 C1.37942344 22.91534475 0.7533655 20.83232072 0.125 18.75 C-0.22304687 17.58984375 -0.57109375 16.4296875 -0.9296875 15.234375 C-1.8656715 12.1158571 -1.8656715 12.1158571 -3.1328125 9.828125 C-4 8 -4 8 -4 4 C-3.34 4 -2.68 4 -2 4 C-1.01 6.64 -0.02 9.28 1 12 C1.08159574 7.83861737 0.98248524 4.0527516 0 0 Z " fill="#2F236B" transform="translate(244,214)"/>
<path d="M0 0 C3.3 0 6.6 0 10 0 C10 3.3 10 6.6 10 10 C6.7 10 3.4 10 0 10 C0 6.7 0 3.4 0 0 Z " fill="#F93335" transform="translate(252,207)"/>
<path d="M0 0 C2.31 0 4.62 0 7 0 C7.07654536 4.51617599 7.10228696 8.59085217 6 13 C7.32 13.33 8.64 13.66 10 14 C6.98509443 15.00496852 4.95818308 15.10335303 1.8125 15.0625 C0.46091797 15.04896484 0.46091797 15.04896484 -0.91796875 15.03515625 C-1.60503906 15.02355469 -2.29210937 15.01195312 -3 15 C-3 14.34 -3 13.68 -3 13 C-1.02 12.67 0.96 12.34 3 12 C3 10.68 3 9.36 3 8 C2.01 8 1.02 8 0 8 C0 5.36 0 2.72 0 0 Z " fill="#544D81" transform="translate(310,221)"/>
<path d="M0 0 C0.33 0 0.66 0 1 0 C1 2.97 1 5.94 1 9 C5.62 8.67 10.24 8.34 15 8 C15 8.99 15 9.98 15 11 C16.32 11.33 17.64 11.66 19 12 C17.02 12.33 15.04 12.66 13 13 C13 13.66 13 14.32 13 15 C7.39 15 1.78 15 -4 15 C-4 14.67 -4 14.34 -4 14 C-2.02 13.67 -0.04 13.34 2 13 C2 12.34 2 11.68 2 11 C1.01 10.34 0.02 9.68 -1 9 C-0.67 6.03 -0.34 3.06 0 0 Z " fill="#2A2360" transform="translate(294,221)"/>
<path d="M0 0 C-0.66 0 -1.32 0 -2 0 C-2 0.66 -2 1.32 -2 2 C1.96 2 5.92 2 10 2 C10.66 0.68 11.32 -0.64 12 -2 C12.33 -0.68 12.66 0.64 13 2 C7.27327111 6.03110525 1.77615996 5.66233142 -5 5 C-7.40951501 4.24864586 -8.90589715 3.43595624 -11 2 C-10.34 1.67 -9.68 1.34 -9 1 C-9 0.34 -9 -0.32 -9 -1 C-5.22102349 -2.0497157 -3.35080929 -2.10976881 0 0 Z " fill="#38326C" transform="translate(256,314)"/>
<path d="M0 0 C3.22852602 3.55137863 3.501598 7.34824798 4 12 C4.31966139 13.66934283 4.64731066 15.3373217 5 17 C4.34 17 3.68 17 3 17 C2.67 17.66 2.34 18.32 2 19 C1.49242138 17.58603098 0.99425075 16.16868271 0.5 14.75 C0.2215625 13.96109375 -0.056875 13.1721875 -0.34375 12.359375 C-1 10 -1 10 -1 6 C-1.66 6 -2.32 6 -3 6 C-3 5.34 -3 4.68 -3 4 C-3.598125 3.87625 -4.19625 3.7525 -4.8125 3.625 C-7 3 -7 3 -10 1 C-6.39076038 -0.20307987 -3.78613423 -0.40565724 0 0 Z " fill="#2B276E" transform="translate(223,161)"/>
<path d="M0 0 C0.33 0 0.66 0 1 0 C1 10.23 1 20.46 1 31 C-1.64 31 -4.28 31 -7 31 C-7 30.01 -7 29.02 -7 28 C-6.18885742 27.55672363 -5.37771484 27.11344727 -4.54199219 26.65673828 C-1.76054854 25.25269312 -1.76054854 25.25269312 -1.35644531 22.47216797 C-1.34709961 21.48877441 -1.33775391 20.50538086 -1.328125 19.4921875 C-1.30363281 18.42355469 -1.27914063 17.35492188 -1.25390625 16.25390625 C-1.25261719 15.13886719 -1.25132812 14.02382813 -1.25 12.875 C-1.21700012 10.66400818 -1.1807255 8.45306194 -1.140625 6.2421875 C-1.13579102 5.2610498 -1.13095703 4.27991211 -1.12597656 3.26904297 C-1 1 -1 1 0 0 Z " fill="#302865" transform="translate(357,288)"/>
<path d="M0 0 C2.64 0 5.28 0 8 0 C8 3.96 8 7.92 8 12 C6.02 12 4.04 12 2 12 C1.93941406 11.38511719 1.87882812 10.77023438 1.81640625 10.13671875 C1.73261719 9.32847656 1.64882813 8.52023438 1.5625 7.6875 C1.48128906 6.88699219 1.40007812 6.08648437 1.31640625 5.26171875 C1.04734307 2.83912821 1.04734307 2.83912821 0 0 Z " fill="#F1EAF0" transform="translate(300,192)"/>
<path d="M0 0 C0.99 0 1.98 0 3 0 C3 0.66 3 1.32 3 2 C3.66 2.33 4.32 2.66 5 3 C5 7.95 5 12.9 5 18 C7.31 18 9.62 18 12 18 C14.43962758 18.48190174 16.62695257 19.22512737 19 20 C13.88693122 21.74087818 9.15886631 20.04405628 4 19 C4 15.37 4 11.74 4 8 C3.34 8 2.68 8 2 8 C1.62875 7.505 1.2575 7.01 0.875 6.5 C-2.08265064 4.13387949 -5.34485571 4.61679939 -9 5 C-9.99 5.33 -10.98 5.66 -12 6 C-12 5.01 -12 4.02 -12 3 C-11.21753906 2.95101562 -10.43507812 2.90203125 -9.62890625 2.8515625 C-8.61699219 2.77679688 -7.60507813 2.70203125 -6.5625 2.625 C-5.55316406 2.55539063 -4.54382813 2.48578125 -3.50390625 2.4140625 C-2.26447266 2.20910156 -2.26447266 2.20910156 -1 2 C-0.67 1.34 -0.34 0.68 0 0 Z " fill="#E74A4F" transform="translate(201,138)"/>
<path d="M0 0 C6.75 0.75 6.75 0.75 9 3 C8.875 5.5 8.875 5.5 8 8 C5.10189884 10.09862498 3.71621139 10 0 10 C0 6.7 0 3.4 0 0 Z " fill="#FDEDEB" transform="translate(216,287)"/>
<path d="M0 0 C-1.24517965 1.13033298 -2.49636652 2.25405036 -3.75 3.375 C-4.44609375 4.00148437 -5.1421875 4.62796875 -5.859375 5.2734375 C-7.84508688 6.87505183 -9.67954093 7.96520068 -12 9 C-12 10.98 -12 12.96 -12 15 C-12.66 15 -13.32 15 -14 15 C-14 15.66 -14 16.32 -14 17 C-14.66 17 -15.32 17 -16 17 C-16 16.34 -16 15.68 -16 15 C-16.99 15.33 -17.98 15.66 -19 16 C-20 15 -20 15 -20.09765625 13.15234375 C-20.06510417 11.1015625 -20.03255208 9.05078125 -20 7 C-19.67 7 -19.34 7 -19 7 C-19 9.31 -19 11.62 -19 14 C-18.67 13.34 -18.34 12.68 -18 12 C-17.34 12 -16.68 12 -16 12 C-15.67 11.01 -15.34 10.02 -15 9 C-14.0409375 8.5978125 -14.0409375 8.5978125 -13.0625 8.1875 C-10.65969749 7.12091134 -10.65969749 7.12091134 -10.125 4 C-9 1 -9 1 -6.0625 -0.4375 C-3 -1 -3 -1 0 0 Z " fill="#48205D" transform="translate(252,243)"/>
<path d="M0 0 C-0.33 0.99 -0.66 1.98 -1 3 C-2.134375 3.28875 -3.26875 3.5775 -4.4375 3.875 C-8.17658301 4.60408023 -8.17658301 4.60408023 -9.4375 7.625 C-9.7159375 8.800625 -9.7159375 8.800625 -10 10 C-10.66 10 -11.32 10 -12 10 C-12 10.66 -12 11.32 -12 12 C-14.31 12 -16.62 12 -19 12 C-19 11.34 -19 10.68 -19 10 C-17.3203125 8.34375 -17.3203125 8.34375 -15.125 6.5 C-13.00964496 4.71066742 -10.95980876 2.95980876 -9 1 C-2.44680851 -1.22340426 -2.44680851 -1.22340426 0 0 Z " fill="#FD302E" transform="translate(260,243)"/>
<path d="M0 0 C1.125 3.75 1.125 3.75 0 6 C0.99 6.33 1.98 6.66 3 7 C3 7.66 3 8.32 3 9 C3.99 8.01 4.98 7.02 6 6 C7.2077558 9.62326739 6.54311128 10.64146369 5 14 C2.03 14 -0.94 14 -4 14 C-2 4.42857143 -2 4.42857143 0 0 Z " fill="#3F386E" transform="translate(274,305)"/>
<path d="M0 0 C6.875 0.875 6.875 0.875 8 2 C7.28 8.72 7.28 8.72 6 10 C4.00041636 10.04080783 1.99954746 10.04254356 0 10 C0 6.7 0 3.4 0 0 Z " fill="#F2F2F8" transform="translate(319,287)"/>
<path d="M0 0 C0.66 0 1.32 0 2 0 C3.34381218 6.4747314 3.34381218 6.4747314 1.875 8.71875 C-0.72427368 10.49492035 -2.57217974 10.29745248 -5.6875 10.1875 C-6.68136719 10.16042969 -7.67523438 10.13335937 -8.69921875 10.10546875 C-9.45847656 10.07066406 -10.21773437 10.03585937 -11 10 C-11.33 8.68 -11.66 7.36 -12 6 C-9.02148438 5.70703125 -9.02148438 5.70703125 -6.04296875 5.4140625 C-3.70011858 5.07334609 -3.70011858 5.07334609 -1 3 C-0.67 2.01 -0.34 1.02 0 0 Z " fill="#FC0102" transform="translate(194,299)"/>
<path d="M0 0 C0.33 0.99 0.66 1.98 1 3 C0.01 4.485 0.01 4.485 -1 6 C-1.66 6 -2.32 6 -3 6 C-3 24.15 -3 42.3 -3 61 C-3.33 61 -3.66 61 -4 61 C-4.10141744 53.11640408 -4.17147331 45.23297638 -4.21972656 37.34887695 C-4.23758325 34.66672177 -4.26541436 31.9849454 -4.30175781 29.30297852 C-4.35027542 25.44796934 -4.37296994 21.59354002 -4.390625 17.73828125 C-4.41127014 16.53915604 -4.43191528 15.34003082 -4.45318604 14.10456848 C-4.45544041 5.74154619 -4.45544041 5.74154619 -1.97558594 1.70385742 C-1.32364258 1.14158447 -0.67169922 0.57931152 0 0 Z " fill="#E13F3D" transform="translate(178,131)"/>
<path d="M0 0 C1.32 0 2.64 0 4 0 C6.13586678 3.20380017 6.23132175 4.01939967 6.125 7.6875 C6.10695313 8.49574219 6.08890625 9.30398437 6.0703125 10.13671875 C6.03550781 11.05904297 6.03550781 11.05904297 6 12 C4.02 12 2.04 12 0 12 C0 8.04 0 4.08 0 0 Z " fill="#D03F4C" transform="translate(296,192)"/>
<path d="M0 0 C7.34249592 -0.28794102 12.13594584 0.22188179 18 5 C14.97906785 8.02093215 11.43627928 7.46676834 7.375 7.625 C6.57320313 7.66367188 5.77140625 7.70234375 4.9453125 7.7421875 C2.96392444 7.83653931 0.98199355 7.91936215 -1 8 C-0.67 7.01 -0.34 6.02 0 5 C1.84765625 4.26953125 1.84765625 4.26953125 4.0625 3.8125 C4.79597656 3.65394531 5.52945312 3.49539062 6.28515625 3.33203125 C7.13400391 3.16767578 7.13400391 3.16767578 8 3 C8 2.34 8 1.68 8 1 C5.36 1 2.72 1 0 1 C0 0.67 0 0.34 0 0 Z " fill="#463E7F" transform="translate(284,230)"/>
<path d="M0 0 C0.33 0 0.66 0 1 0 C1 3.3 1 6.6 1 10 C2.65 10 4.3 10 6 10 C6 10.33 6 10.66 6 11 C4.35 11.33 2.7 11.66 1 12 C1.33 12.66 1.66 13.32 2 14 C1.67 14.66 1.34 15.32 1 16 C2.32 15.34 3.64 14.68 5 14 C4.67 15.98 4.34 17.96 4 20 C3.34 19.67 2.68 19.34 2 19 C1.67 23.29 1.34 27.58 1 32 C0.67 32 0.34 32 0 32 C-0.19425873 29.20865148 -0.38069517 26.41716313 -0.5625 23.625 C-0.61857422 22.8309375 -0.67464844 22.036875 -0.73242188 21.21875 C-1.11328125 15.2265625 -1.11328125 15.2265625 0 13 C-0.66 13 -1.32 13 -2 13 C-1.84660156 12.43796875 -1.69320313 11.8759375 -1.53515625 11.296875 C-0.98639581 8.94161122 -0.68502401 6.65451896 -0.4375 4.25 C-0.35371094 3.45078125 -0.26992188 2.6515625 -0.18359375 1.828125 C-0.12300781 1.22484375 -0.06242187 0.6215625 0 0 Z " fill="#605A8D" transform="translate(318,287)"/>
<path d="M0 0 C0.33 0 0.66 0 1 0 C1.10152799 6.7685324 1.03026944 13.30324864 0 20 C-0.66 19.01 -1.32 18.02 -2 17 C-2.66 17.99 -3.32 18.98 -4 20 C-3.91621094 19.14535156 -3.83242188 18.29070312 -3.74609375 17.41015625 C-3.64425781 16.30542969 -3.54242188 15.20070312 -3.4375 14.0625 C-3.33308594 12.96035156 -3.22867187 11.85820312 -3.12109375 10.72265625 C-3.08113281 9.82417969 -3.04117187 8.92570313 -3 8 C-3.33 7.67 -3.66 7.34 -4 7 C-4.33 7.99 -4.66 8.98 -5 10 C-5 8.35 -5 6.7 -5 5 C-7.97 5 -10.94 5 -14 5 C-14 4.67 -14 4.34 -14 4 C-12.37509046 3.97301811 -10.75005367 3.95361243 -9.125 3.9375 C-8.22007812 3.92589844 -7.31515625 3.91429687 -6.3828125 3.90234375 C-4 4 -4 4 -2 5 C-1.34 3.35 -0.68 1.7 0 0 Z " fill="#514B81" transform="translate(325,188)"/>
<path d="M0 0 C2.5625 0.1875 2.5625 0.1875 4.5625 2.1875 C4.8125 4.6875 4.8125 4.6875 4.5625 7.1875 C3.9025 7.8475 3.2425 8.5075 2.5625 9.1875 C-1.99305556 8.63194444 -1.99305556 8.63194444 -3.4375 7.1875 C-3.5625 4.1875 -3.5625 4.1875 -3.4375 1.1875 C-2.4375 0.1875 -2.4375 0.1875 0 0 Z " fill="#958FB0" transform="translate(310.4375,266.8125)"/>
<path d="M0 0 C3.125 0.375 3.125 0.375 6 1 C6.125 3.875 6.125 3.875 6 7 C5.34 7.66 4.68 8.32 4 9 C-0.55555556 8.44444444 -0.55555556 8.44444444 -2 7 C-2.1875 4.5625 -2.1875 4.5625 -2 2 C-1.34 1.34 -0.68 0.68 0 0 Z " fill="#D7D3ED" transform="translate(239,267)"/>
<path d="M0 0 C0.99 0.33 1.98 0.66 3 1 C4.89470816 1.0685495 6.7916834 1.08480372 8.6875 1.0625 C9.68136719 1.05347656 10.67523438 1.04445312 11.69921875 1.03515625 C12.45847656 1.02355469 13.21773438 1.01195312 14 1 C14 1.66 14 2.32 14 3 C12.68 3 11.36 3 10 3 C10 3.99 10 4.98 10 6 C12.64 6 15.28 6 18 6 C14.73386305 7.91302307 12.00554752 8.35674661 8.25 8.625 C6.77273438 8.73714844 6.77273438 8.73714844 5.265625 8.8515625 C4.51796875 8.90054688 3.7703125 8.94953125 3 9 C2.87625 8.030625 2.7525 7.06125 2.625 6.0625 C2.41875 5.051875 2.2125 4.04125 2 3 C1.34 2.67 0.68 2.34 0 2 C0 1.34 0 0.68 0 0 Z " fill="#3C2160" transform="translate(250,232)"/>
<path d="M0 0 C0.99 0 1.98 0 3 0 C2.67 2.64 2.34 5.28 2 8 C4.91482778 8.80967438 6.46113217 9.21845993 9.3125 8.0625 C9.869375 7.711875 10.42625 7.36125 11 7 C10.3125 9.4375 10.3125 9.4375 9 12 C6.17472339 13.11524077 4.68778848 13.23581319 1.8125 12.25 C0 11 0 11 -2 8 C-2.25 4.9375 -2.25 4.9375 -2 2 C-1.34 1.34 -0.68 0.68 0 0 Z " fill="#373463" transform="translate(236,266)"/>
<path d="M0 0 C8.58 0 17.16 0 26 0 C26 0.33 26 0.66 26 1 C22.37 1 18.74 1 15 1 C15 4.63 15 8.26 15 12 C14.01 12 13.02 12 12 12 C12 8.37 12 4.74 12 1 C8.04 1 4.08 1 0 1 C0 0.67 0 0.34 0 0 Z " fill="#69204C" transform="translate(266,191)"/>
<path d="M0 0 C0.66 0.33 1.32 0.66 2 1 C2.6328125 3.72265625 2.6328125 3.72265625 3.125 7.0625 C3.29257813 8.16722656 3.46015625 9.27195313 3.6328125 10.41015625 C3.75398437 11.26480469 3.87515625 12.11945313 4 13 C3.34 13 2.68 13 2 13 C2.2165625 13.59167969 2.433125 14.18335938 2.65625 14.79296875 C5.42179262 22.64147627 5.42179262 22.64147627 5 27 C4.67 26.34 4.34 25.68 4 25 C3.34 25 2.68 25 2 25 C1.86722656 24.38511719 1.73445312 23.77023438 1.59765625 23.13671875 C1.42105469 22.32847656 1.24445313 21.52023438 1.0625 20.6875 C0.80146484 19.48673828 0.80146484 19.48673828 0.53515625 18.26171875 C0.00113841 15.854599 0.00113841 15.854599 -1 13 C-0.67 12.34 -0.34 11.68 0 11 C0.66 11 1.32 11 2 11 C1.505 9.948125 1.505 9.948125 1 8.875 C-0.09044562 5.73996884 -0.15322643 3.29436818 0 0 Z " fill="#49205A" transform="translate(226,167)"/>
<path d="M0 0 C-1.32 0.99 -2.64 1.98 -4 3 C-4 2.34 -4 1.68 -4 1 C-9.13308861 0.74334557 -12.26238088 1.156379 -16.19921875 4.515625 C-18.36115768 6.49307934 -20.42997372 8.55224479 -22.49609375 10.62890625 C-25 13 -25 13 -27 13 C-27 13.99 -27 14.98 -27 16 C-26.01 16.33 -25.02 16.66 -24 17 C-25.32 17.33 -26.64 17.66 -28 18 C-28.5 15.4375 -28.5 15.4375 -28 12 C-25.61997128 9.30026592 -22.82608031 7.21238768 -20 5 C-19.24976563 4.24783203 -19.24976563 4.24783203 -18.484375 3.48046875 C-14.75771148 -0.23548596 -11.38261701 -0.69532651 -6.3671875 -1.0546875 C-4.07860414 -1.00181594 -2.18578239 -0.65472744 0 0 Z " fill="#C94054" transform="translate(268,240)"/>
<path d="M0 0 C3.96 0 7.92 0 12 0 C12 3.96 12 7.92 12 12 C8.04 12 4.08 12 0 12 C0 8.04 0 4.08 0 0 Z M1 1 C0.979375 2.299375 0.95875 3.59875 0.9375 4.9375 C0.92589844 5.66839844 0.91429687 6.39929688 0.90234375 7.15234375 C0.79438816 9.01732141 0.79438816 9.01732141 2 10 C5.00331018 10.14193337 7.99217134 10.04236378 11 10 C11 7.03 11 4.06 11 1 C7.7 1 4.4 1 1 1 Z " fill="#D53A4B" transform="translate(266,192)"/>
<path d="M0 0 C5.10650593 -0.32594719 8.72705307 0.45558411 13.51171875 2.19921875 C17.90529465 3.6131639 22.44987934 4.27708363 27 5 C26.67 5.66 26.34 6.32 26 7 C19.73 6.34 13.46 5.68 7 5 C7 4.34 7 3.68 7 3 C6.34 3 5.68 3 5 3 C5 2.34 5 1.68 5 1 C3.35 1 1.7 1 0 1 C0 0.67 0 0.34 0 0 Z " fill="#D63849" transform="translate(192,161)"/>
<path d="M0 0 C4.62 0 9.24 0 14 0 C14.09765625 10.05859375 14.09765625 10.05859375 14 13 C12.34346314 14.65653686 10.39349204 14.17106165 8.125 14.1875 C7.24070312 14.20167969 6.35640625 14.21585938 5.4453125 14.23046875 C3 14 3 14 0 12 C-0.41820365 7.97409284 -0.12945079 4.05612469 0 0 Z M1 1 C0.95875 2.2375 0.9175 3.475 0.875 4.75 C0.85179687 5.44609375 0.82859375 6.1421875 0.8046875 6.859375 C1.02751458 9.30155975 1.79085 10.88636771 3 13 C4.47906892 13.02689216 5.95827483 13.04634621 7.4375 13.0625 C8.67306641 13.07990234 8.67306641 13.07990234 9.93359375 13.09765625 C11.99163938 13.23267348 11.99163938 13.23267348 13 12 C13.07226502 10.14712498 13.0838122 8.29166122 13.0625 6.4375 C13.041875 4.643125 13.02125 2.84875 13 1 C9.04 1 5.08 1 1 1 Z " fill="#83244A" transform="translate(250,220)"/>
<path d="M0 0 C2.64 0 5.28 0 8 0 C8 2.97 8 5.94 8 9 C6.35 9 4.7 9 3 9 C1.64560332 6.29120665 1.93498549 3.99066732 2 1 C1.34 0.67 0.68 0.34 0 0 Z " fill="#FC3130" transform="translate(239,193)"/>
<path d="M0 0 C10.38437692 -0.09776087 20.66192051 -0.1555538 31 1 C31 1.33 31 1.66 31 2 C27.06756732 2.16783149 23.13491104 2.32836761 19.2019043 2.48217773 C17.2067109 2.56173399 15.21174989 2.64705005 13.21679688 2.73242188 C11.96318359 2.78076172 10.70957031 2.82910156 9.41796875 2.87890625 C7.68196411 2.94960327 7.68196411 2.94960327 5.91088867 3.02172852 C3 3 3 3 0 2 C0 1.34 0 0.68 0 0 Z " fill="#2B256D" transform="translate(245,187)"/>
<path d="M0 0 C0.99 0 1.98 0 3 0 C3.33 1.32 3.66 2.64 4 4 C15.88 4.66 27.76 5.32 40 6 C40 6.33 40 6.66 40 7 C26.97893922 7.18780376 14.00466516 6.60749834 1 6 C0.67 4.02 0.34 2.04 0 0 Z " fill="#F2353C" transform="translate(232,178)"/>
<path d="M0 0 C0.66 0 1.32 0 2 0 C2.50403768 1.29009643 3.00309926 2.58213789 3.5 3.875 C3.7784375 4.59429687 4.056875 5.31359375 4.34375 6.0546875 C5 8 5 8 5 10 C2.36 10 -0.28 10 -3 10 C-2.01 6.7 -1.02 3.4 0 0 Z " fill="#FEE9E8" transform="translate(185,293)"/>
<path d="M0 0 C2.7972908 2.06756277 3.02692273 3.14440371 3.6875 6.6875 C3.790625 7.780625 3.89375 8.87375 4 10 C1.69 10 -0.62 10 -3 10 C-2.49287967 6.28111761 -1.88391785 3.26545761 0 0 Z " fill="#E7E5F2" transform="translate(288,293)"/>
<path d="M0 0 C0.33 0.66 0.66 1.32 1 2 C1.66 2 2.32 2 3 2 C4.6875 3.6875 4.6875 3.6875 6 6 C5.6875 8.5625 5.6875 8.5625 5 11 C5 11.99 5 12.98 5 14 C2.8614515 11.8614515 2.57344937 10.86724686 2 8 C1.34 8 0.68 8 0 8 C-0.33 8.66 -0.66 9.32 -1 10 C-1.66 10 -2.32 10 -3 10 C-2.01 6.7 -1.02 3.4 0 0 Z " fill="#443A79" transform="translate(284,280)"/>
<path d="M0 0 C3.3 0 6.6 0 10 0 C9.47731534 2.76276177 8.89130413 5.3260876 8 8 C5.03 7.505 5.03 7.505 2 7 C2.33 5.35 2.66 3.7 3 2 C2.01 2 1.02 2 0 2 C0 1.34 0 0.68 0 0 Z " fill="#342D6B" transform="translate(259,282)"/>
<path d="M0 0 C0.33 0.99 0.66 1.98 1 3 C1.66 3 2.32 3 3 3 C3.33 2.34 3.66 1.68 4 1 C4.125 8.75 4.125 8.75 3 11 C1.35 11 -0.3 11 -2 11 C-1.85957123 9.35369672 -1.71250671 7.70795821 -1.5625 6.0625 C-1.48128906 5.14597656 -1.40007812 4.22945312 -1.31640625 3.28515625 C-1 1 -1 1 0 0 Z " fill="#362F6A" transform="translate(318,223)"/>
<path d="M0 0 C0.33 1.32 0.66 2.64 1 4 C0.34 4 -0.32 4 -1 4 C-1.33 5.65 -1.66 7.3 -2 9 C7.57 9 17.14 9 27 9 C27 9.33 27 9.66 27 10 C16.44 10 5.88 10 -5 10 C-3.51799926 6.29499816 -2.091496 3.32738 0 0 Z " fill="#C82427" transform="translate(138,309)"/>
<path d="M0 0 C0.66 0.99 1.32 1.98 2 3 C4.05925139 3.72382467 4.05925139 3.72382467 6 4 C6.33 5.32 6.66 6.64 7 8 C3.7 8 0.4 8 -3 8 C-2.67 6.02 -2.34 4.04 -2 2 C-1.34 2 -0.68 2 0 2 C0 1.34 0 0.68 0 0 Z " fill="#2B2262" transform="translate(333,311)"/>
<path d="M0 0 C0.8971875 0.309375 0.8971875 0.309375 1.8125 0.625 C1.1525 0.625 0.4925 0.625 -0.1875 0.625 C-0.1875 1.285 -0.1875 1.945 -0.1875 2.625 C-0.80625 2.7075 -1.425 2.79 -2.0625 2.875 C-4.33792479 3.42423543 -4.33792479 3.42423543 -5.3125 5.5 C-5.745625 6.551875 -5.745625 6.551875 -6.1875 7.625 C-7.1775 9.11 -7.1775 9.11 -8.1875 10.625 C-9.5075 10.625 -10.8275 10.625 -12.1875 10.625 C-14.4375 7.625 -14.4375 7.625 -16.1875 4.625 C-13.7125 5.12 -13.7125 5.12 -11.1875 5.625 C-11.1875 6.945 -11.1875 8.265 -11.1875 9.625 C-10.5275 9.625 -9.8675 9.625 -9.1875 9.625 C-9.5175 7.975 -9.8475 6.325 -10.1875 4.625 C-9.5275 4.295 -8.8675 3.965 -8.1875 3.625 C-7.1975 3.955 -6.2075 4.285 -5.1875 4.625 C-5.1875 3.635 -5.1875 2.645 -5.1875 1.625 C-2.1875 -0.375 -2.1875 -0.375 0 0 Z " fill="#DF3F4A" transform="translate(242.1875,239.375)"/>
<path d="M0 0 C1.9375 0.3125 1.9375 0.3125 4 1 C4.33 1.99 4.66 2.98 5 4 C6.6336861 5.36830247 6.6336861 5.36830247 8.5625 6.5625 C10.50390625 7.81640625 10.50390625 7.81640625 12 9 C12 9.66 12 10.32 12 11 C8.625 10.6875 8.625 10.6875 5 10 C3 7 3 7 3 3 C2.01 2.67 1.02 2.34 0 2 C0 1.34 0 0.68 0 0 Z M2 9 C2.99 9.33 3.98 9.66 5 10 C5 10.66 5 11.32 5 12 C4.01 11.67 3.02 11.34 2 11 C2 10.34 2 9.68 2 9 Z " fill="#F54744" transform="translate(238,131)"/>
<path d="M0 0 C0.66 0 1.32 0 2 0 C3.03891291 2.53554978 4.05607425 5.07657825 5.0625 7.625 C5.35705078 8.33785156 5.65160156 9.05070313 5.95507812 9.78515625 C7.70101543 14.26297194 8.32432746 17.20215079 7 22 C6.01 21.67 5.02 21.34 4 21 C4.66 21 5.32 21 6 21 C5.37942344 18.91534475 4.7533655 16.83232072 4.125 14.75 C3.77695313 13.58984375 3.42890625 12.4296875 3.0703125 11.234375 C2.1343285 8.1158571 2.1343285 8.1158571 0.8671875 5.828125 C0 4 0 4 0 0 Z " fill="#491D55" transform="translate(240,218)"/>
<path d="M0 0 C8.58 0 17.16 0 26 0 C26 1.65 26 3.3 26 5 C25.67 3.68 25.34 2.36 25 1 C14.11 1.495 14.11 1.495 3 2 C3 3.32 3 4.64 3 6 C2.01 6 1.02 6 0 6 C0 4.02 0 2.04 0 0 Z " fill="#2E285B" transform="translate(341,280)"/>
<path d="M0 0 C0.66 0 1.32 0 2 0 C2.66 2.31 3.32 4.62 4 7 C4.66 7 5.32 7 6 7 C6.53093324 8.93475671 7.04942317 10.87293155 7.5625 12.8125 C7.85253906 13.89144531 8.14257812 14.97039062 8.44140625 16.08203125 C9 19 9 19 8 22 C7.05118406 19.62796014 6.10273442 17.25578415 5.15625 14.8828125 C4.3926092 12.97887023 3.6219012 11.0777455 2.84375 9.1796875 C2.4828125 8.29539063 2.121875 7.41109375 1.75 6.5 C1.41484375 5.6853125 1.0796875 4.870625 0.734375 4.03125 C0 2 0 2 0 0 Z " fill="#541F51" transform="translate(231,196)"/>
<path d="M0 0 C2.12534659 0.14069196 4.25027529 0.28770921 6.375 0.4375 C8.15003906 0.55931641 8.15003906 0.55931641 9.9609375 0.68359375 C13 1 13 1 15 2 C14.67 2.66 14.34 3.32 14 4 C9.38 4 4.76 4 0 4 C0 2.66666667 0 1.33333333 0 0 Z " fill="#2D285B" transform="translate(283,307)"/>
<path d="M0 0 C1.98 0 3.96 0 6 0 C6 2.31 6 4.62 6 7 C4.02 7 2.04 7 0 7 C0 4.69 0 2.38 0 0 Z " fill="#FAF9FD" transform="translate(311,221)"/>
<path d="M0 0 C3.96 0 7.92 0 12 0 C12 0.33 12 0.66 12 1 C8.37 1 4.74 1 1 1 C2.31798055 5.16233299 2.31798055 5.16233299 4.125 9.125 C5 11 5 11 5 15 C4.34 15 3.68 15 3 15 C2.29634398 13.4447088 1.61270622 11.88035173 0.9375 10.3125 C0.55464844 9.44238281 0.17179688 8.57226562 -0.22265625 7.67578125 C-1 5 -1 5 0 0 Z " fill="#491F5A" transform="translate(236,189)"/>
<path d="M0 0 C0.33 0.99 0.66 1.98 1 3 C-0.98 3.33 -2.96 3.66 -5 4 C-4.67 4.66 -4.34 5.32 -4 6 C-5.65 7.32 -7.3 8.64 -9 10 C-10.32 9.34 -11.64 8.68 -13 8 C-12.67 7.01 -12.34 6.02 -12 5 C-11.01 5 -10.02 5 -9 5 C-8.34 3.68 -7.68 2.36 -7 1 C-4.69 1.33 -2.38 1.66 0 2 C0 1.34 0 0.68 0 0 Z " fill="#48407D" transform="translate(292,301)"/>
<path d="M0 0 C2.2430501 2.16570354 2.48293582 3.70153135 2.8125 6.75 C2.35875 6.255 1.905 5.76 1.4375 5.25 C-0.06385519 3.52390663 -0.06385519 3.52390663 -2.1875 3.75 C-2.1875 3.09 -2.1875 2.43 -2.1875 1.75 C-5.8175 1.09 -9.4475 0.43 -13.1875 -0.25 C-13.1875 -0.58 -13.1875 -0.91 -13.1875 -1.25 C-7.90658554 -2.16400443 -4.66590115 -2.66622923 0 0 Z " fill="#3B3470" transform="translate(333.1875,283.25)"/>
<path d="M0 0 C0 6.8467975 -1.27132232 10.15873475 -6 15 C-6.99 15.33 -7.98 15.66 -9 16 C-7.39065021 12.72687796 -5.67889161 9.517174 -3.9375 6.3125 C-3.41027344 5.33925781 -2.88304687 4.36601562 -2.33984375 3.36328125 C-1 1 -1 1 0 0 Z " fill="#FECECC" transform="translate(159,292)"/>
<path d="M0 0 C2.7865517 2.7865517 2.65662895 5.15424427 3 9 C2.67 9.66 2.34 10.32 2 11 C-3.53846154 11.36923077 -3.53846154 11.36923077 -5.875 9.5 C-6.24625 9.005 -6.6175 8.51 -7 8 C-4.36 8 -1.72 8 1 8 C0.67 5.36 0.34 2.72 0 0 Z " fill="#2C2663" transform="translate(292,296)"/>
<path d="M0 0 C4.15358254 3.43469325 7.78875342 6.63270466 11 11 C8.50907189 12.24546405 7.58919267 11.7767578 5 11 C5 10.34 5 9.68 5 9 C4.34 9 3.68 9 3 9 C2.01 6.03 1.02 3.06 0 0 Z " fill="#EC4646" transform="translate(278,170)"/>
<path d="M0 0 C1.65 0 3.3 0 5 0 C5 3.63 5 7.26 5 11 C2.41952564 9.70976282 2.32977036 8.72910609 1.375 6.0625 C1.11460937 5.35222656 0.85421875 4.64195312 0.5859375 3.91015625 C0 2 0 2 0 0 Z " fill="#CD384E" transform="translate(243,206)"/>
<path d="M0 0 C2.52259061 1.97420135 2.9929808 2.96745642 3.6875 6.1875 C3.790625 7.115625 3.89375 8.04375 4 9 C1.03 9 -1.94 9 -5 9 C-5.33 7.35 -5.66 5.7 -6 4 C-5.34 4 -4.68 4 -4 4 C-4 4.99 -4 5.98 -4 7 C-2.35 6.67 -0.7 6.34 1 6 C0.67 4.02 0.34 2.04 0 0 Z " fill="#D61D20" transform="translate(201,310)"/>
<path d="M0 0 C1.65 0.33 3.3 0.66 5 1 C5.33 2.65 5.66 4.3 6 6 C3.36 6 0.72 6 -2 6 C-1.67 4.68 -1.34 3.36 -1 2 C-1 2.66 -1 3.32 -1 4 C-0.34 4 0.32 4 1 4 C0.67 2.68 0.34 1.36 0 0 Z " fill="#2E2660" transform="translate(301,313)"/>
<path d="M0 0 C0.99 0.33 1.98 0.66 3 1 C2.34 2.98 1.68 4.96 1 7 C-0.65 7.33 -2.3 7.66 -4 8 C-3.50168276 4.31245243 -2.89932357 2.39509338 0 0 Z " fill="#2F246B" transform="translate(240,244)"/>
<path d="M0 0 C2.31 0 4.62 0 7 0 C6.67 2.97 6.34 5.94 6 9 C4 6 4 6 4 3 C2.35 3.66 0.7 4.32 -1 5 C-0.67 3.35 -0.34 1.7 0 0 Z " fill="#2C2469" transform="translate(240,288)"/>
<path d="M0 0 C0 1.32 0 2.64 0 4 C-0.66 4 -1.32 4 -2 4 C-2 4.66 -2 5.32 -2 6 C-2.66 6 -3.32 6 -4 6 C-4.66 5.34 -5.32 4.68 -6 4 C-6 3.01 -6 2.02 -6 1 C-7.98 1 -9.96 1 -12 1 C-12 0.67 -12 0.34 -12 0 C-3.42857143 -1.28571429 -3.42857143 -1.28571429 0 0 Z " fill="#504982" transform="translate(323,220)"/>
<path d="M0 0 C0.99 0 1.98 0 3 0 C3 3.63 3 7.26 3 11 C2.01 11 1.02 11 0 11 C0 7.37 0 3.74 0 0 Z " fill="#6E1C49" transform="translate(278,207)"/>
<path d="M0 0 C0.33 0 0.66 0 1 0 C0.979375 0.94875 0.95875 1.8975 0.9375 2.875 C0.77448174 5.90666283 0.77448174 5.90666283 2 8 C1.5625 10.125 1.5625 10.125 1 12 C-0.65 12 -2.3 12 -4 12 C-2.66666667 8 -1.33333333 4 0 0 Z " fill="#413974" transform="translate(280,290)"/>
<path d="M0 0 C1.32 0 2.64 0 4 0 C4 2.64 4 5.28 4 8 C2.68 8 1.36 8 0 8 C0 5.36 0 2.72 0 0 Z " fill="#F83132" transform="translate(297,194)"/>
<path d="M0 0 C3.3 0 6.6 0 10 0 C10 0.66 10 1.32 10 2 C7.03 2 4.06 2 1 2 C1.33 3.98 1.66 5.96 2 8 C1.67 7.34 1.34 6.68 1 6 C0.34 6 -0.32 6 -1 6 C-0.67 4.02 -0.34 2.04 0 0 Z " fill="#491D5A" transform="translate(242,204)"/>
<path d="M0 0 C1.65 0.99 3.3 1.98 5 3 C5 2.01 5 1.02 5 0 C5.66 0.33 6.32 0.66 7 1 C6 4 6 4 3.75 5.1875 C1.00208853 5.99938294 -1.15447889 6.16260121 -4 6 C-3.67 4.68 -3.34 3.36 -3 2 C-2.01 2 -1.02 2 0 2 C0 1.34 0 0.68 0 0 Z " fill="#322566" transform="translate(247,238)"/>
<path d="M0 0 C5.75 1.75 5.75 1.75 8 4 C8.125 6.625 8.125 6.625 8 9 C6.84775972 8.07038578 5.70340824 7.1309875 4.5625 6.1875 C3.60537109 5.40439453 3.60537109 5.40439453 2.62890625 4.60546875 C1 3 1 3 0 0 Z " fill="#EC4043" transform="translate(175,192)"/>
<path d="M0 0 C0.33 1.32 0.66 2.64 1 4 C0.34 4 -0.32 4 -1 4 C-0.896875 4.7425 -0.79375 5.485 -0.6875 6.25 C-1 9 -1 9 -3.5 11.3125 C-4.7375 12.1478125 -4.7375 12.1478125 -6 13 C-6 9.32965255 -4.9247108 7.9000569 -3 4.8125 C-2.443125 3.91144531 -1.88625 3.01039063 -1.3125 2.08203125 C-0.6628125 1.05142578 -0.6628125 1.05142578 0 0 Z " fill="#E52D2F" transform="translate(146,296)"/>
<path d="M0 0 C0.33 0 0.66 0 1 0 C2.34076016 6.21625164 2.34076016 6.21625164 0.75 9.875 C-1 12 -1 12 -4 13 C-3.52343588 11.20763933 -3.04366502 9.41613103 -2.5625 7.625 C-2.29566406 6.62726563 -2.02882812 5.62953125 -1.75390625 4.6015625 C-1 2 -1 2 0 0 Z " fill="#EA2B2D" transform="translate(174,298)"/>
<path d="M0 0 C4.44936709 -0.36075949 4.44936709 -0.36075949 6.8125 1.1875 C8.36678206 3.55982525 8.22537188 5.22041345 8 8 C6.85073734 7.04578192 5.70569459 6.08647955 4.5625 5.125 C3.92441406 4.59132812 3.28632813 4.05765625 2.62890625 3.5078125 C1 2 1 2 0 0 Z " fill="#ED4244" transform="translate(191,209)"/>
<path d="M0 0 C0 0.66 0 1.32 0 2 C3.3 2 6.6 2 10 2 C10 2.33 10 2.66 10 3 C1.585 3.495 1.585 3.495 -7 4 C-6.67 3.01 -6.34 2.02 -6 1 C-3.90006779 0.25486277 -2.22568901 0 0 0 Z " fill="#3C356F" transform="translate(290,234)"/>
<path d="M0 0 C3.96 0 7.92 0 12 0 C12 1.32 12 2.64 12 4 C11.34 4 10.68 4 10 4 C10 3.34 10 2.68 10 2 C6.7 2 3.4 2 0 2 C0 1.34 0 0.68 0 0 Z " fill="#3D2259" transform="translate(266,232)"/>
<path d="M0 0 C0.99 1.485 0.99 1.485 2 3 C5.06556598 3.73343428 5.06556598 3.73343428 8 4 C8 4.66 8 5.32 8 6 C7.34 6 6.68 6 6 6 C6 8.64 6 11.28 6 14 C5.67 14 5.34 14 5 14 C5 12.02 5 10.04 5 8 C4.34 7.67 3.68 7.34 3 7 C1.375 5.6875 1.375 5.6875 0 4 C0 2.68 0 1.36 0 0 Z " fill="#372261" transform="translate(244,214)"/>
<path d="M0 0 C2.57112831 1.76765071 3.07659703 3.45089059 4 6.375 C1 6.375 1 6.375 -0.38671875 5.0625 C-1.59114583 3.5 -2.79557292 1.9375 -4 0.375 C-2 -0.625 -2 -0.625 0 0 Z " fill="#EE4043" transform="translate(188,201.625)"/>
<path d="M0 0 C1.65 0 3.3 0 5 0 C4.67 0.66 4.34 1.32 4 2 C4.95865509 4.33075929 4.95865509 4.33075929 8 6 C5.03 5.67 2.06 5.34 -1 5 C-0.67 3.35 -0.34 1.7 0 0 Z " fill="#382E6B" transform="translate(200,156)"/>
<path d="M0 0 C2 3 2 3 1.6875 5 C1.460625 5.66 1.23375 6.32 1 7 C0.67 7.99 0.34 8.98 0 10 C-1.65 10 -3.3 10 -5 10 C-5 9.34 -5 8.68 -5 8 C-4.34 8 -3.68 8 -3 8 C-2.690625 7.05125 -2.38125 6.1025 -2.0625 5.125 C-1 2 -1 2 0 0 Z " fill="#292364" transform="translate(244,298)"/>
<path d="M0 0 C1.79378179 2.69067269 2.97313958 5.08578257 4.1875 8.0625 C4.55230469 8.94035156 4.91710937 9.81820313 5.29296875 10.72265625 C6 13 6 13 5 15 C4.896875 14.360625 4.79375 13.72125 4.6875 13.0625 C4.460625 12.381875 4.23375 11.70125 4 11 C3.01 10.67 2.02 10.34 1 10 C0.67 6.7 0.34 3.4 0 0 Z " fill="#5D5786" transform="translate(297,291)"/>
<path d="M0 0 C0.66 1.32 1.32 2.64 2 4 C0.8553125 4.1546875 0.8553125 4.1546875 -0.3125 4.3125 C-3.21894395 5.05600892 -4.03566029 5.84858032 -6 8 C-6.66 8 -7.32 8 -8 8 C-8.33 6.35 -8.66 4.7 -9 3 C-4.545 2.505 -4.545 2.505 0 2 C0 1.34 0 0.68 0 0 Z " fill="#292262" transform="translate(327,295)"/>
<path d="M0 0 C5.28 0 10.56 0 16 0 C14 4 14 4 12 6 C12 4.35 12 2.7 12 1 C8.04 1 4.08 1 0 1 C0 0.67 0 0.34 0 0 Z " fill="#FFE6E7" transform="translate(135,288)"/>
<path d="M0 0 C3.33333333 3.33333333 6.66666667 6.66666667 10 10 C5.97657617 9.38101172 3.12229583 7.55460568 0 5 C-0.375 2.25 -0.375 2.25 0 0 Z " fill="#EB4A4D" transform="translate(268,160)"/>
<path d="M0 0 C0.33 0 0.66 0 1 0 C1.33 1.65 1.66 3.3 2 5 C2.33 5 2.66 5 3 5 C3 7.64 3 10.28 3 13 C2.34 11.68 1.68 10.36 1 9 C0.01 9.495 0.01 9.495 -1 10 C-1.66 9.34 -2.32 8.68 -3 8 C-2.34 7.01 -1.68 6.02 -1 5 C-0.61500109 3.34450469 -0.27206865 1.6777567 0 0 Z " fill="#E4CAD5" transform="translate(234,291)"/>
<path d="M0 0 C1.98 0 3.96 0 6 0 C6 1.32 6 2.64 6 4 C3.03 4 0.06 4 -3 4 C-3 3.34 -3 2.68 -3 2 C-2.01 2 -1.02 2 0 2 C0 1.34 0 0.68 0 0 Z " fill="#443E78" transform="translate(344,284)"/>
<path d="M0 0 C3 1 3 1 5 4 C5.125 7.1875 5.125 7.1875 5 10 C2 9 2 9 1.05078125 7.15234375 C0.80714844 6.42144531 0.56351562 5.69054687 0.3125 4.9375 C0.06113281 4.20402344 -0.19023437 3.47054688 -0.44921875 2.71484375 C-0.63097656 2.14894531 -0.81273437 1.58304687 -1 1 C-0.67 0.67 -0.34 0.34 0 0 Z " fill="#413A70" transform="translate(313,264)"/>
<path d="M0 0 C0.33 0 0.66 0 1 0 C1 2.31 1 4.62 1 7 C1.33 6.34 1.66 5.68 2 5 C4.97 5.495 4.97 5.495 8 6 C8 6.66 8 7.32 8 8 C7.34 8 6.68 8 6 8 C6 8.66 6 9.32 6 10 C5.34 10 4.68 10 4 10 C4 9.34 4 8.68 4 8 C3.01 8.33 2.02 8.66 1 9 C0 8 0 8 -0.09765625 6.15234375 C-0.06510417 4.1015625 -0.03255208 2.05078125 0 0 Z " fill="#50447B" transform="translate(232,250)"/>
<path d="M0 0 C2.375 0.25 2.375 0.25 5 1 C6.3125 3.0625 6.3125 3.0625 7 5 C6.34 5.66 5.68 6.32 5 7 C3.29115995 5.37660195 1.62553283 3.70680947 0 2 C0 1.34 0 0.68 0 0 Z " fill="#EE3F42" transform="translate(216,233)"/>
<path d="M0 0 C0 2.64 0 5.28 0 8 C-0.66 7.01 -1.32 6.02 -2 5 C-5.55672179 3.7811879 -5.55672179 3.7811879 -9 3 C-5.92807025 0.26939578 -4.09590633 -0.34132553 0 0 Z " fill="#281F62" transform="translate(325,188)"/>
<path d="M0 0 C2.99298654 2.56541703 4.50639962 5.3726848 6 9 C6.1875 12.375 6.1875 12.375 6 15 C5.34 14.67 4.68 14.34 4 14 C3.3671875 11.71484375 3.3671875 11.71484375 2.875 8.9375 C2.70742187 8.01839844 2.53984375 7.09929687 2.3671875 6.15234375 C2.24601563 5.44207031 2.12484375 4.73179687 2 4 C1.34 4 0.68 4 0 4 C0 2.68 0 1.36 0 0 Z " fill="#BC334B" transform="translate(221,174)"/>
<path d="M0 0 C0.66 0 1.32 0 2 0 C2.69699552 1.45381897 3.38233866 2.91322953 4.0625 4.375 C4.63677734 5.59316406 4.63677734 5.59316406 5.22265625 6.8359375 C5.47917969 7.55007813 5.73570312 8.26421875 6 9 C5.67 9.66 5.34 10.32 5 11 C2.27042661 8.64264116 1.11106604 6.41866474 0 3 C0 2.01 0 1.02 0 0 Z " fill="#403A6E" transform="translate(291,280)"/>
<path d="M0 0 C0.33 0.66 0.66 1.32 1 2 C-0.6875 4.0625 -0.6875 4.0625 -3 6 C-5.75 5.75 -5.75 5.75 -8 5 C-8 4.34 -8 3.68 -8 3 C-7.05125 2.690625 -6.1025 2.38125 -5.125 2.0625 C-2.13919592 1.12605258 -2.13919592 1.12605258 0 0 Z " fill="#332E58" transform="translate(246,273)"/>
<path d="M0 0 C0.99 0 1.98 0 3 0 C3 0.99 3 1.98 3 3 C4.32 3.33 5.64 3.66 7 4 C4.36 4.66 1.72 5.32 -1 6 C-1 3 -1 3 0 0 Z " fill="#2E266B" transform="translate(306,229)"/>
<path d="M0 0 C0.66 0 1.32 0 2 0 C2 0.66 2 1.32 2 2 C2.66 2 3.32 2 4 2 C3.67 2.99 3.34 3.98 3 5 C0.03 5 -2.94 5 -6 5 C-4.68 4.34 -3.36 3.68 -2 3 C-1.34 2.01 -0.68 1.02 0 0 Z " fill="#F2343B" transform="translate(273,226)"/>
<path d="M0 0 C2 3 2 3 2 6 C5.0745356 5.2236068 5.0745356 5.2236068 7 3 C7.33 3.99 7.66 4.98 8 6 C7.34 6.66 6.68 7.32 6 8 C1.44444444 7.44444444 1.44444444 7.44444444 0 6 C-0.04080783 4.00041636 -0.04254356 1.99954746 0 0 Z " fill="#D5CFEF" transform="translate(307,268)"/>
<path d="M0 0 C0.66 0 1.32 0 2 0 C1.8125 1.8125 1.8125 1.8125 1 4 C-1.3125 5.5625 -1.3125 5.5625 -4 7 C-5.34631825 7.98244845 -6.68441297 8.97676564 -8 10 C-6.55922954 6.63820226 -4.75249979 4.40843732 -2 2 C-1.34 2 -0.68 2 0 2 C0 1.34 0 0.68 0 0 Z " fill="#5C1F51" transform="translate(242,240)"/>
<path d="M0 0 C2 2 2 2 2.1953125 3.9453125 C2.13020833 5.96354167 2.06510417 7.98177083 2 10 C2.66 10 3.32 10 4 10 C3.67 10.99 3.34 11.98 3 13 C1 11.625 1 11.625 -1 10 C-1 9.34 -1 8.68 -1 8 C-0.34 8 0.32 8 1 8 C0.67 5.36 0.34 2.72 0 0 Z " fill="#E73541" transform="translate(219,168)"/>
<path d="M0 0 C0.33 0.99 0.66 1.98 1 3 C1.66 3 2.32 3 3 3 C3.33 2.34 3.66 1.68 4 1 C6 3 6 3 6 5 C3.69 5.33 1.38 5.66 -1 6 C-1.33 4.68 -1.66 3.36 -2 2 C-1.34 2 -0.68 2 0 2 C0 1.34 0 0.68 0 0 Z " fill="#362D74" transform="translate(246,307)"/>
<path d="M0 0 C0.66 0.33 1.32 0.66 2 1 C2.40729228 3.32156597 2.74438677 5.6568787 3 8 C2.01 8.66 1.02 9.32 0 10 C-1.2380014 6.42355152 -0.74926071 3.66305234 0 0 Z " fill="#292266" transform="translate(295,290)"/>
<path d="M0 0 C1.32 0 2.64 0 4 0 C3.67 0.66 3.34 1.32 3 2 C2.01 1.34 1.02 0.68 0 0 Z M2 2 C3.15941038 5.47823115 2.70820884 7.45895578 2 11 C0.79371992 8.66785852 -0.1654738 6.50357861 -1 4 C-0.01 3.34 0.98 2.68 2 2 Z " fill="#EF1413" transform="translate(224,283)"/>
<path d="M0 0 C1.5 1.375 1.5 1.375 3 3 C3 3.66 3 4.32 3 5 C-0.3 5 -3.6 5 -7 5 C-7 4.67 -7 4.34 -7 4 C-6.030625 3.71125 -5.06125 3.4225 -4.0625 3.125 C-0.89335797 2.35785318 -0.89335797 2.35785318 0 0 Z " fill="#3D3765" transform="translate(337,314)"/>
<path d="M0 0 C4.29 0.33 8.58 0.66 13 1 C13 1.33 13 1.66 13 2 C8.38 2.33 3.76 2.66 -1 3 C-0.67 2.01 -0.34 1.02 0 0 Z " fill="#2B2266" transform="translate(283,307)"/>
<path d="M0 0 C0.66 0 1.32 0 2 0 C2.50403768 1.29009643 3.00309926 2.58213789 3.5 3.875 C3.7784375 4.59429687 4.056875 5.31359375 4.34375 6.0546875 C5 8 5 8 5 10 C4.01 9.67 3.02 9.34 2 9 C2 7.68 2 6.36 2 5 C1.01 4.67 0.02 4.34 -1 4 C-0.67 2.68 -0.34 1.36 0 0 Z " fill="#FDC0C2" transform="translate(185,293)"/>
<path d="M0 0 C1.65 0.33 3.3 0.66 5 1 C3.07423885 3.43929746 1.19909405 5.80090595 -1 8 C-0.67 5.36 -0.34 2.72 0 0 Z " fill="#403870" transform="translate(247,288)"/>
<path d="M0 0 C2.97 0 5.94 0 9 0 C9 0.33 9 0.66 9 1 C7.02 1.33 5.04 1.66 3 2 C3 3.98 3 5.96 3 8 C0.37613513 4.93882432 0 4.26826873 0 0 Z " fill="#E03746" transform="translate(238,192)"/>
<path d="M0 0 C-0.66666667 2 -1.33333333 4 -2 6 C-3.32 5.67 -4.64 5.34 -6 5 C-5.625 3.0625 -5.625 3.0625 -5 1 C-3 0 -3 0 0 0 Z " fill="#282062" transform="translate(328,302)"/>
<path d="M0 0 C1.32 0.66 2.64 1.32 4 2 C3.67 2.99 3.34 3.98 3 5 C-0.48670834 3.8905928 -3.77484237 2.73662334 -7 1 C-4.69 1 -2.38 1 0 1 C0 0.67 0 0.34 0 0 Z " fill="#3B3572" transform="translate(326,285)"/>
<path d="M0 0 C2.0625 1.625 2.0625 1.625 4 4 C3.75 7.25 3.75 7.25 3 10 C2.01 9.67 1.02 9.34 0 9 C0.66 9 1.32 9 2 9 C1.34 6.03 0.68 3.06 0 0 Z " fill="#5B1D51" transform="translate(244,230)"/>
<path d="M0 0 C0.99 0 1.98 0 3 0 C3.103125 0.61875 3.20625 1.2375 3.3125 1.875 C3.87525373 4.36526484 3.87525373 4.36526484 7 6 C5.02 6 3.04 6 1 6 C0.67 4.02 0.34 2.04 0 0 Z " fill="#E13748" transform="translate(232,178)"/>
<path d="M0 0 C1.1446875 0.2475 1.1446875 0.2475 2.3125 0.5 C5.03596236 1.09145396 5.03596236 1.09145396 8 1 C8 1.99 8 2.98 8 4 C7.34 3.67 6.68 3.34 6 3 C5.67 4.32 5.34 5.64 5 7 C5 5.68 5 4.36 5 3 C4.34 3 3.68 3 3 3 C3 2.34 3 1.68 3 1 C2.01 0.67 1.02 0.34 0 0 Z " fill="#322164" transform="translate(217,164)"/>
<path d="M0 0 C1.73662334 3.22515763 2.8905928 6.51329166 4 10 C3.34 10 2.68 10 2 10 C2 9.01 2 8.02 2 7 C1.01 7 0.02 7 -1 7 C-0.67 4.69 -0.34 2.38 0 0 Z " fill="#E92326" transform="translate(197,298)"/>
<path d="M0 0 C0.66 0.33 1.32 0.66 2 1 C0.35 3.64 -1.3 6.28 -3 9 C-3.33 7.68 -3.66 6.36 -4 5 C-3.34 4.01 -2.68 3.02 -2 2 C-1.34 2 -0.68 2 0 2 C0 1.34 0 0.68 0 0 Z " fill="#FFE5E0" transform="translate(143,298)"/>
<path d="M0 0 C0.33 0.99 0.66 1.98 1 3 C-0.25 4.5 -0.25 4.5 -2 6 C-3.32 6 -4.64 6 -6 6 C-6 5.34 -6 4.68 -6 4 C-4.36368108 2.95107762 -2.69514137 1.95093297 -1 1 C-0.67 0.67 -0.34 0.34 0 0 Z " fill="#2D2656" transform="translate(316,272)"/>
<path d="M0 0 C0.66 0.33 1.32 0.66 2 1 C0.02 1.99 0.02 1.99 -2 3 C-2 4.32 -2 5.64 -2 7 C-2.99 7 -3.98 7 -5 7 C-5 5.68 -5 4.36 -5 3 C-2.625 1.1875 -2.625 1.1875 0 0 Z " fill="#5E2757" transform="translate(242,249)"/>
<path d="M0 0 C1.98 0 3.96 0 6 0 C5.67 0.66 5.34 1.32 5 2 C4.34 2 3.68 2 3 2 C2.67 2.99 2.34 3.98 2 5 C1.34 5 0.68 5 0 5 C0 3.35 0 1.7 0 0 Z " fill="#BA495C" transform="translate(281,220)"/>
<path d="M0 0 C-0.99 1.485 -0.99 1.485 -2 3 C-2.66 3 -3.32 3 -4 3 C-4.33 2.34 -4.66 1.68 -5 1 C-5.99 0.34 -6.98 -0.32 -8 -1 C-4.59745511 -2.2151946 -3.06748874 -1.86240388 0 0 Z " fill="#38306B" transform="translate(312,219)"/>
<path d="M0 0 C1.65 0 3.3 0 5 0 C5.33 1.32 5.66 2.64 6 4 C3.03 3.505 3.03 3.505 0 3 C0 2.01 0 1.02 0 0 Z " fill="#413A6D" transform="translate(261,286)"/>
<path d="M0 0 C0.66 0.33 1.32 0.66 2 1 C2 3.31 2 5.62 2 8 C1.01 7.67 0.02 7.34 -1 7 C-0.67 4.69 -0.34 2.38 0 0 Z " fill="#494372" transform="translate(246,267)"/>
<path d="M0 0 C0.33 0 0.66 0 1 0 C1.06058594 0.60328125 1.12117187 1.2065625 1.18359375 1.828125 C1.26738281 2.62734375 1.35117188 3.4265625 1.4375 4.25 C1.51871094 5.03890625 1.59992188 5.8278125 1.68359375 6.640625 C1.97634993 8.82364639 2.42064419 10.8773182 3 13 C2.01 12.67 1.02 12.34 0 12 C0 8.04 0 4.08 0 0 Z " fill="#601A4D" transform="translate(250,220)"/>
<path d="M0 0 C0.33 0.99 0.66 1.98 1 3 C1.66 3 2.32 3 3 3 C3.33 2.34 3.66 1.68 4 1 C3.75 2.875 3.75 2.875 3 5 C0.9375 6.25 0.9375 6.25 -1 7 C-1.04254356 5.00045254 -1.04080783 2.99958364 -1 1 C-0.67 0.67 -0.34 0.34 0 0 Z " fill="#2D245E" transform="translate(318,223)"/>
<path d="M0 0 C3.00617269 3.00617269 2.59585316 5.82381598 3 10 C2.67 9.34 2.34 8.68 2 8 C1.34 8 0.68 8 0 8 C0 5.36 0 2.72 0 0 Z " fill="#C03349" transform="translate(229,192)"/>
<path d="M0 0 C1.9375 0.3125 1.9375 0.3125 4 1 C4.33 1.99 4.66 2.98 5 4 C6.49985609 5.66710346 6.49985609 5.66710346 8 7 C6.0625 6.6875 6.0625 6.6875 4 6 C3.67 5.01 3.34 4.02 3 3 C2.01 2.67 1.02 2.34 0 2 C0 1.34 0 0.68 0 0 Z " fill="#E95857" transform="translate(238,131)"/>
<path d="M0 0 C0.99 0.66 1.98 1.32 3 2 C3 2.99 3 3.98 3 5 C2.34 5 1.68 5 1 5 C0.34 5.66 -0.32 6.32 -1 7 C-1.33 5.02 -1.66 3.04 -2 1 C-1.34 0.67 -0.68 0.34 0 0 Z " fill="#4B437B" transform="translate(299,312)"/>
<path d="M0 0 C0.66 0 1.32 0 2 0 C1.44271087 3.34373475 0.64826111 6.03312999 -1 9 C-2.25541557 5.23375329 -1.37061958 3.62811066 0 0 Z " fill="#2E295E" transform="translate(285,294)"/>
<path d="M0 0 C0.99 0.33 1.98 0.66 3 1 C3 2.32 3 3.64 3 5 C1.68 4.67 0.36 4.34 -1 4 C-0.67 2.68 -0.34 1.36 0 0 Z " fill="#423C64" transform="translate(240,269)"/>
<path d="M0 0 C0.33 0.99 0.66 1.98 1 3 C0.01 4.485 0.01 4.485 -1 6 C-1.66 6 -2.32 6 -3 6 C-3.33 6.99 -3.66 7.98 -4 9 C-3.38461538 3.46153846 -3.38461538 3.46153846 -1.4375 1.125 C-0.963125 0.75375 -0.48875 0.3825 0 0 Z " fill="#E74E4E" transform="translate(178,131)"/>
</svg>
