<?xml version="1.0" encoding="UTF-8"?>
<!DOCTYPE svg PUBLIC "-//W3C//DTD SVG 1.1//EN" "http://www.w3.org/Graphics/SVG/1.1/DTD/svg11.dtd">
<svg xmlns="http://www.w3.org/2000/svg" version="1.1" width="500px" height="500px" style="shape-rendering:geometricPrecision; text-rendering:geometricPrecision; image-rendering:optimizeQuality; fill-rule:evenodd; clip-rule:evenodd" xmlns:xlink="http://www.w3.org/1999/xlink">
<g><path style="opacity:0.004" fill="#fefffe" d="M 159.5,4.5 C 160.833,5.16667 160.833,5.16667 159.5,4.5 Z"/></g>
<g><path style="opacity:0.004" fill="#fefffe" d="M 468.5,4.5 C 469.833,5.16667 469.833,5.16667 468.5,4.5 Z"/></g>
<g><path style="opacity:0.004" fill="#fefffe" d="M 5.5,10.5 C 6.83333,11.1667 6.83333,11.1667 5.5,10.5 Z"/></g>
<g><path style="opacity:0.004" fill="#fefffe" d="M 248.5,14.5 C 249.833,15.1667 249.833,15.1667 248.5,14.5 Z"/></g>
<g><path style="opacity:0.004" fill="#fefffe" d="M 310.5,20.5 C 311.833,21.1667 311.833,21.1667 310.5,20.5 Z"/></g>
<g><path style="opacity:0.004" fill="#fefffe" d="M 472.5,23.5 C 473.833,24.1667 473.833,24.1667 472.5,23.5 Z"/></g>
<g><path style="opacity:0.004" fill="#fefffe" d="M 26.5,25.5 C 27.8333,26.1667 27.8333,26.1667 26.5,25.5 Z"/></g>
<g><path style="opacity:0.004" fill="#fefffe" d="M 271.5,34.5 C 272.833,35.1667 272.833,35.1667 271.5,34.5 Z"/></g>
<g><path style="opacity:0.004" fill="#fefffe" d="M 388.5,47.5 C 389.833,48.1667 389.833,48.1667 388.5,47.5 Z"/></g>
<g><path style="opacity:0.004" fill="#fefffe" d="M 53.5,51.5 C 54.8333,52.1667 54.8333,52.1667 53.5,51.5 Z"/></g>
<g><path style="opacity:0.004" fill="#fefffe" d="M 341.5,57.5 C 342.833,58.1667 342.833,58.1667 341.5,57.5 Z"/></g>
<g><path style="opacity:0.004" fill="#fefffe" d="M 181.5,58.5 C 182.833,59.1667 182.833,59.1667 181.5,58.5 Z"/></g>
<g><path style="opacity:0.533" fill="#83abda" d="M 229.5,69.5 C 225.02,70.5206 220.353,71.1873 215.5,71.5C 219.881,69.7895 224.547,69.1228 229.5,69.5 Z"/></g>
<g><path style="opacity:0.004" fill="#fefffe" d="M 469.5,70.5 C 470.833,71.1667 470.833,71.1667 469.5,70.5 Z"/></g>
<g><path style="opacity:0.004" fill="#fefffe" d="M 64.5,71.5 C 65.8333,72.1667 65.8333,72.1667 64.5,71.5 Z"/></g>
<g><path style="opacity:0.984" fill="#4c7dc7" d="M 229.5,69.5 C 242.66,68.3396 255.994,68.173 269.5,69C 277.51,69.4259 285.176,70.9259 292.5,73.5C 284.267,73.6791 276.267,72.5124 268.5,70C 255.504,69.5001 242.504,69.3334 229.5,69.5 Z"/></g>
<g><path style="opacity:1" fill="#1d74e1" d="M 229.5,69.5 C 242.504,69.3334 255.504,69.5001 268.5,70C 276.267,72.5124 284.267,73.6791 292.5,73.5C 296.126,75.4977 300.126,76.4977 304.5,76.5C 369.7,97.867 410.533,141.867 427,208.5C 431.008,231.464 431.508,254.464 428.5,277.5C 427.521,278.765 426.521,280.099 425.5,281.5C 423.865,289.625 422.031,297.625 420,305.5C 419.781,304.062 419.281,302.729 418.5,301.5C 418.167,302.167 417.833,302.833 417.5,303.5C 418.722,307.169 418.722,310.835 417.5,314.5C 415.509,322.149 412.175,329.149 407.5,335.5C 406.5,335.5 405.5,335.5 404.5,335.5C 404.657,336.873 404.49,338.207 404,339.5C 401.248,338.142 400.748,338.809 402.5,341.5C 401.135,344.214 399.468,346.714 397.5,349C 396.552,349.483 395.552,349.649 394.5,349.5C 393.69,351.798 392.856,354.132 392,356.5C 391.667,356.167 391.333,355.833 391,355.5C 390.51,356.793 390.343,358.127 390.5,359.5C 387.996,358.361 385.33,357.694 382.5,357.5C 382.167,360.5 383.5,361.833 386.5,361.5C 386.5,362.5 386.5,363.5 386.5,364.5C 385.5,364.5 384.5,364.5 383.5,364.5C 383.5,366.167 383.5,367.833 383.5,369.5C 379.487,374.512 374.821,378.845 369.5,382.5C 367.712,382.215 366.045,382.548 364.5,383.5C 362.306,386.74 359.306,388.74 355.5,389.5C 355.5,390.5 355.5,391.5 355.5,392.5C 354.167,392.5 352.833,392.5 351.5,392.5C 351.5,393.833 351.5,395.167 351.5,396.5C 350.101,397.89 348.434,398.89 346.5,399.5C 344.5,399.5 342.5,399.5 340.5,399.5C 340.5,400.5 340.5,401.5 340.5,402.5C 338.856,402.714 337.356,402.38 336,401.5C 335.517,402.448 335.351,403.448 335.5,404.5C 333.801,404.34 332.134,404.506 330.5,405C 331.711,405.893 331.711,406.726 330.5,407.5C 326.327,408.75 322.661,410.75 319.5,413.5C 314.294,414.219 309.294,415.719 304.5,418C 299.485,418.219 294.485,418.219 289.5,418C 290.949,419.117 292.616,419.784 294.5,420C 287.275,422.043 279.942,423.543 272.5,424.5C 270.5,424.333 268.5,424.167 266.5,424C 275.645,422.276 275.645,421.442 266.5,421.5C 263.713,421.574 261.213,422.24 259,423.5C 258.147,421.875 257.147,421.542 256,422.5C 249.021,421.725 242.021,420.725 235,419.5C 229.816,420.81 224.482,421.81 219,422.5C 215.584,421.793 212.25,420.793 209,419.5C 207.177,419.887 205.343,420.221 203.5,420.5C 199.681,418.737 195.681,417.737 191.5,417.5C 190.833,417.5 190.167,417.5 189.5,417.5C 187.153,414.663 184.153,412.83 180.5,412C 179.299,411.097 178.465,409.931 178,408.5C 176.484,411.051 175.651,410.718 175.5,407.5C 173.94,407.519 172.44,407.852 171,408.5C 169.349,407.258 167.515,406.424 165.5,406C 165.833,405.667 166.167,405.333 166.5,405C 164.866,404.506 163.199,404.34 161.5,404.5C 153.359,401.01 146.025,396.343 139.5,390.5C 139.278,388.393 138.278,386.726 136.5,385.5C 136.901,383.566 137.901,382.066 139.5,381C 138.151,380.228 137.318,379.061 137,377.5C 135.817,376.269 134.651,376.269 133.5,377.5C 135.52,379.599 135.854,381.933 134.5,384.5C 131.937,382.892 129.937,380.725 128.5,378C 128.957,377.586 129.291,377.086 129.5,376.5C 128.24,375.618 127.074,374.618 126,373.5C 124.817,374.731 123.651,374.731 122.5,373.5C 120.995,372.158 120.328,370.492 120.5,368.5C 116.738,368.694 115.071,366.86 115.5,363C 115.629,361.019 116.296,359.353 117.5,358C 116.572,357.612 115.905,356.945 115.5,356C 117.576,354.756 118.576,352.923 118.5,350.5C 117.167,350.5 115.833,350.5 114.5,350.5C 114.884,352.665 114.217,354.332 112.5,355.5C 111.561,353.947 110.394,352.613 109,351.5C 108.5,351.833 108,352.167 107.5,352.5C 109.447,354.276 109.78,356.276 108.5,358.5C 108.167,358.167 107.833,357.833 107.5,357.5C 104.312,351.835 100.979,346.168 97.5,340.5C 98.6161,340.598 99.6161,340.098 100.5,339C 99.8524,337.56 99.5191,336.06 99.5,334.5C 97.0885,334.137 95.5885,335.137 95,337.5C 94.1499,333.982 91.9832,331.649 88.5,330.5C 84.3572,323.211 81.0238,315.545 78.5,307.5C 78.6633,305.143 78.4966,302.81 78,300.5C 77.1688,297.098 75.6688,294.098 73.5,291.5C 71.8603,287.004 70.8603,282.337 70.5,277.5C 70.3338,271.158 70.5005,264.825 71,258.5C 73,257.5 73,256.5 71,255.5C 70.7489,246.467 70.2489,237.467 69.5,228.5C 69.1228,223.547 69.7895,218.881 71.5,214.5C 72.6572,211.727 73.3239,208.727 73.5,205.5C 73.5,204.833 73.5,204.167 73.5,203.5C 75.4514,201.52 76.9514,199.187 78,196.5C 79.3687,191.261 80.5354,185.927 81.5,180.5C 98.1149,137.714 127.115,106.214 168.5,86C 183.429,78.8499 199.095,74.0166 215.5,71.5C 220.353,71.1873 225.02,70.5206 229.5,69.5 Z M 324.5,142.5 C 322.129,147.265 320.129,152.265 318.5,157.5C 318.5,157.833 318.5,158.167 318.5,158.5C 314.112,166.358 310.779,174.691 308.5,183.5C 307.522,183.811 306.855,184.478 306.5,185.5C 319.895,186.184 333.229,186.85 346.5,187.5C 347.412,188.738 347.579,190.072 347,191.5C 344.628,193.703 342.461,196.037 340.5,198.5C 328.815,209.552 317.815,221.219 307.5,233.5C 295,245.835 283,258.668 271.5,272C 270.552,272.483 269.552,272.649 268.5,272.5C 268.338,270.473 268.505,268.473 269,266.5C 272.692,259.458 275.525,252.125 277.5,244.5C 281.67,235.35 285.67,226.016 289.5,216.5C 277.514,215.667 265.514,215.167 253.5,215C 251.637,213.582 251.137,211.749 252,209.5C 254.04,207.63 255.873,205.63 257.5,203.5C 262.5,198.167 267.5,192.833 272.5,187.5C 290.455,167.708 308.622,148.042 327,128.5C 328.059,128.63 328.892,129.13 329.5,130C 327.414,134.004 325.748,138.171 324.5,142.5 Z M 144.5,159.5 C 153.589,162.102 162.922,164.102 172.5,165.5C 172.833,165.5 173.167,165.5 173.5,165.5C 175.515,166.924 177.848,167.59 180.5,167.5C 184.304,172.149 186.638,177.482 187.5,183.5C 187.229,185.38 187.896,186.713 189.5,187.5C 189.5,188.5 189.5,189.5 189.5,190.5C 189.539,191.583 189.873,192.583 190.5,193.5C 210.489,194.5 230.489,194.833 250.5,194.5C 246.529,198.437 243.029,202.77 240,207.5C 238.185,215.703 241.019,221.536 248.5,225C 256.493,225.5 264.493,225.666 272.5,225.5C 273.167,225.5 273.833,225.5 274.5,225.5C 272.723,229.305 271.39,233.305 270.5,237.5C 266.192,247.487 262.359,257.821 259,268.5C 257.906,272.959 259.073,276.626 262.5,279.5C 263.058,280.79 264.058,281.623 265.5,282C 272.295,283.98 277.628,282.147 281.5,276.5C 289.507,268.493 297.173,260.159 304.5,251.5C 319.546,236.122 333.879,220.122 347.5,203.5C 350.606,200.799 353.606,197.965 356.5,195C 361.884,193.868 366.884,194.702 371.5,197.5C 372.569,200.408 372.736,203.408 372,206.5C 367.651,221.378 363.818,236.378 360.5,251.5C 358.077,260.397 355.577,269.397 353,278.5C 351.969,281.539 350.135,284.039 347.5,286C 333.885,287.406 320.218,287.906 306.5,287.5C 276.167,287.5 245.833,287.5 215.5,287.5C 214.341,294.142 212.674,300.642 210.5,307C 211.256,308.38 211.922,308.547 212.5,307.5C 215.391,308.403 218.391,308.736 221.5,308.5C 259.27,308.606 296.604,308.272 333.5,307.5C 335.851,308.173 338.184,308.84 340.5,309.5C 342.312,311.461 343.312,313.794 343.5,316.5C 342.404,318.103 341.07,319.603 339.5,321C 292.501,321.5 245.501,321.667 198.5,321.5C 197.206,320.71 196.039,319.71 195,318.5C 194.502,315.518 194.335,312.518 194.5,309.5C 197.53,300.226 200.197,290.726 202.5,281C 201.966,277.892 200.966,275.059 199.5,272.5C 197.253,262.49 194.253,252.823 190.5,243.5C 188.113,233.279 185.113,223.279 181.5,213.5C 180.63,209.021 179.297,204.688 177.5,200.5C 176.084,193.665 174.084,186.998 171.5,180.5C 164.305,178.201 156.971,176.534 149.5,175.5C 143.897,174.371 138.564,172.371 133.5,169.5C 132.302,161.036 135.968,157.703 144.5,159.5 Z M 118.5,226.5 C 135.837,226.333 153.17,226.5 170.5,227C 175.977,228.95 176.644,231.95 172.5,236C 154.167,236.667 135.833,236.667 117.5,236C 114.383,234.28 113.717,231.78 115.5,228.5C 116.602,227.824 117.602,227.158 118.5,226.5 Z M 134.5,252.5 C 150.219,252.118 165.886,252.784 181.5,254.5C 184.283,257.342 183.95,259.842 180.5,262C 164.5,262.667 148.5,262.667 132.5,262C 128.672,260.101 128.005,257.601 130.5,254.5C 131.949,253.828 133.282,253.161 134.5,252.5 Z M 189.5,279.5 C 189.92,281.094 190.586,282.594 191.5,284C 191.05,285.285 190.383,286.452 189.5,287.5C 177.18,288.666 164.847,288.833 152.5,288C 150.016,285.716 149.849,283.216 152,280.5C 152.671,279.748 153.504,279.414 154.5,279.5C 166.101,279.369 177.768,279.369 189.5,279.5 Z M 212.5,330.5 C 224.495,331.324 229.662,337.657 228,349.5C 226.705,352.292 225.205,354.958 223.5,357.5C 219.999,360.664 215.999,362.997 211.5,364.5C 198.825,364.994 193.325,358.994 195,346.5C 196.564,342.445 198.731,338.779 201.5,335.5C 201.833,335.5 202.167,335.5 202.5,335.5C 205.631,333.268 208.964,331.601 212.5,330.5 Z M 308.5,331.5 C 315.842,335.746 318.342,342.079 316,350.5C 314.733,352.814 313.566,355.148 312.5,357.5C 306.736,362.366 300.069,364.532 292.5,364C 289.855,362.956 287.522,361.456 285.5,359.5C 283.857,355.7 283.19,351.7 283.5,347.5C 284.038,345.883 284.371,344.216 284.5,342.5C 287.5,338.833 290.833,335.5 294.5,332.5C 299.126,330.833 303.793,330.5 308.5,331.5 Z"/></g>
<g><path style="opacity:0.773" fill="#759bd7" d="M 292.5,73.5 C 296.8,73.7191 300.8,74.7191 304.5,76.5C 300.126,76.4977 296.126,75.4977 292.5,73.5 Z"/></g>
<g><path style="opacity:0.004" fill="#fefffe" d="M 30.5,77.5 C 31.8333,78.1667 31.8333,78.1667 30.5,77.5 Z"/></g>
<g><path style="opacity:0.004" fill="#fefffe" d="M 475.5,83.5 C 476.833,84.1667 476.833,84.1667 475.5,83.5 Z"/></g>
<g><path style="opacity:0.004" fill="#fefffe" d="M 474.5,88.5 C 475.833,89.1667 475.833,89.1667 474.5,88.5 Z"/></g>
<g><path style="opacity:0.004" fill="#fefffe" d="M 110.5,90.5 C 111.833,91.1667 111.833,91.1667 110.5,90.5 Z"/></g>
<g><path style="opacity:0.004" fill="#fefffe" d="M 416.5,106.5 C 417.833,107.167 417.833,107.167 416.5,106.5 Z"/></g>
<g><path style="opacity:0.004" fill="#fefffe" d="M 483.5,123.5 C 484.833,124.167 484.833,124.167 483.5,123.5 Z"/></g>
<g><path style="opacity:1" fill="#5a88cf" d="M 324.5,142.5 C 324.282,148.379 322.282,153.379 318.5,157.5C 320.129,152.265 322.129,147.265 324.5,142.5 Z"/></g>
<g><path style="opacity:0.004" fill="#fefffe" d="M 499.5,155.5 C 499.5,155.833 499.5,156.167 499.5,156.5C 498.83,156.019 498.83,155.685 499.5,155.5 Z"/></g>
<g><path style="opacity:0.996" fill="#6492d6" d="M 144.5,159.5 C 151.292,159.377 157.959,160.21 164.5,162C 167.122,163.475 169.788,164.641 172.5,165.5C 162.922,164.102 153.589,162.102 144.5,159.5 Z"/></g>
<g><path style="opacity:0.282" fill="#9ebef0" d="M 173.5,165.5 C 176.152,165.41 178.485,166.076 180.5,167.5C 177.848,167.59 175.515,166.924 173.5,165.5 Z"/></g>
<g><path style="opacity:0.004" fill="#fefffe" d="M 479.5,166.5 C 480.833,167.167 480.833,167.167 479.5,166.5 Z"/></g>
<g><path style="opacity:0.004" fill="#fefffe" d="M 451.5,168.5 C 452.833,169.167 452.833,169.167 451.5,168.5 Z"/></g>
<g><path style="opacity:0.004" fill="#fefffe" d="M 493.5,171.5 C 494.833,172.167 494.833,172.167 493.5,171.5 Z"/></g>
<g><path style="opacity:1" fill="#5b8bd6" d="M 133.5,169.5 C 138.564,172.371 143.897,174.371 149.5,175.5C 145.818,175.665 142.152,175.499 138.5,175C 136.641,173.019 134.308,172.019 131.5,172C 132.756,171.583 133.423,170.75 133.5,169.5 Z"/></g>
<g><path style="opacity:1" fill="#5182d1" d="M 318.5,158.5 C 317.092,167.747 313.759,176.081 308.5,183.5C 310.779,174.691 314.112,166.358 318.5,158.5 Z"/></g>
<g><path style="opacity:0.067" fill="#b9d5f7" d="M 187.5,183.5 C 188.674,184.514 189.34,185.847 189.5,187.5C 187.896,186.713 187.229,185.38 187.5,183.5 Z"/></g>
<g><path style="opacity:1" fill="#417bd2" d="M 149.5,175.5 C 156.971,176.534 164.305,178.201 171.5,180.5C 174.084,186.998 176.084,193.665 177.5,200.5C 175.59,199.025 174.424,197.025 174,194.5C 173.25,193.874 172.416,193.374 171.5,193C 172.38,191.644 172.714,190.144 172.5,188.5C 171.448,188.649 170.448,188.483 169.5,188C 170.38,186.644 170.714,185.144 170.5,183.5C 168.076,183.808 165.743,183.474 163.5,182.5C 165.027,180.67 164.527,179.67 162,179.5C 160.674,179.755 159.674,180.422 159,181.5C 155.866,179.355 152.699,177.355 149.5,175.5 Z"/></g>
<g><path style="opacity:0.564" fill="#5485c3" d="M 308.5,183.5 C 321.128,185.318 334.128,186.152 347.5,186C 346.944,186.383 346.611,186.883 346.5,187.5C 333.229,186.85 319.895,186.184 306.5,185.5C 306.855,184.478 307.522,183.811 308.5,183.5 Z"/></g>
<g><path style="opacity:0.653" fill="#709dd8" d="M 189.5,190.5 C 190.71,190.932 191.71,191.599 192.5,192.5C 211.833,193.167 231.167,193.833 250.5,194.5C 230.489,194.833 210.489,194.5 190.5,193.5C 189.873,192.583 189.539,191.583 189.5,190.5 Z"/></g>
<g><path style="opacity:1" fill="#5482cf" d="M 81.5,180.5 C 80.5354,185.927 79.3687,191.261 78,196.5C 76.9514,199.187 75.4514,201.52 73.5,203.5C 75.3672,195.458 78.0339,187.792 81.5,180.5 Z"/></g>
<g><path style="opacity:1" fill="#4b7fd2" d="M 371.5,197.5 C 366.884,194.702 361.884,193.868 356.5,195C 353.606,197.965 350.606,200.799 347.5,203.5C 347.5,201.833 347.5,200.167 347.5,198.5C 348.5,198.5 349.5,198.5 350.5,198.5C 350.67,197.178 350.337,196.011 349.5,195C 350.549,194.508 351.549,194.674 352.5,195.5C 353.096,194.284 353.263,192.951 353,191.5C 359.117,192.276 365.283,192.943 371.5,193.5C 371.5,194.833 371.5,196.167 371.5,197.5 Z"/></g>
<g><path style="opacity:1" fill="#3377da" d="M 272.5,187.5 C 267.5,192.833 262.5,198.167 257.5,203.5C 256.25,203.423 255.417,202.756 255,201.5C 254.64,203.421 253.806,205.088 252.5,206.5C 251.391,205.41 250.391,205.41 249.5,206.5C 250.299,209.675 250.632,212.675 250.5,215.5C 251.574,217.284 253.24,218.451 255.5,219C 254.341,220.827 253.008,222.493 251.5,224C 258.679,224.171 265.679,224.671 272.5,225.5C 264.493,225.666 256.493,225.5 248.5,225C 241.019,221.536 238.185,215.703 240,207.5C 243.029,202.77 246.529,198.437 250.5,194.5C 231.167,193.833 211.833,193.167 192.5,192.5C 212.877,192.619 233.21,192.452 253.5,192C 252.773,193.399 252.273,194.899 252,196.5C 247.159,198.33 246.492,200.997 250,204.5C 250.637,201.672 252.304,199.672 255,198.5C 255.195,196.793 255.195,195.126 255,193.5C 255.333,193.833 255.667,194.167 256,194.5C 259.226,190.6 260.726,190.933 260.5,195.5C 261.5,195.5 262.5,195.5 263.5,195.5C 262.871,192.625 262.038,189.958 261,187.5C 263.039,185.126 265.372,183.126 268,181.5C 268.494,183.134 268.66,184.801 268.5,186.5C 269.959,186.433 271.292,186.766 272.5,187.5 Z"/></g>
<g><path style="opacity:0.004" fill="#fefffe" d="M 482.5,208.5 C 483.833,209.167 483.833,209.167 482.5,208.5 Z"/></g>
<g><path style="opacity:0.224" fill="#7daadc" d="M 73.5,205.5 C 73.3239,208.727 72.6572,211.727 71.5,214.5C 71.2153,211.171 71.8819,208.171 73.5,205.5 Z"/></g>
<g><path style="opacity:1" fill="#3b7adb" d="M 340.5,198.5 C 338.961,200.773 339.294,202.773 341.5,204.5C 343.409,203.652 345.409,203.318 347.5,203.5C 333.879,220.122 319.546,236.122 304.5,251.5C 304.34,249.801 304.506,248.134 305,246.5C 305.333,246.833 305.667,247.167 306,247.5C 306.309,246.234 306.809,245.067 307.5,244C 307.167,243.667 306.833,243.333 306.5,243C 308.473,242.505 310.473,242.338 312.5,242.5C 312.714,240.856 312.38,239.356 311.5,238C 313.025,236.991 314.692,236.491 316.5,236.5C 316.5,235.5 316.5,234.5 316.5,233.5C 314.857,233.48 313.524,234.147 312.5,235.5C 311.15,234.05 309.484,233.383 307.5,233.5C 317.815,221.219 328.815,209.552 340.5,198.5 Z"/></g>
<g><path style="opacity:0.004" fill="#fefffe" d="M 58.5,217.5 C 59.8333,218.167 59.8333,218.167 58.5,217.5 Z"/></g>
<g><path style="opacity:0.999" fill="#1970df" d="M 250.5,215.5 C 262.42,216.479 274.42,216.812 286.5,216.5C 286.17,219.109 284.67,220.776 282,221.5C 281.51,222.793 281.343,224.127 281.5,225.5C 279.167,225.5 276.833,225.5 274.5,225.5C 273.833,225.5 273.167,225.5 272.5,225.5C 265.679,224.671 258.679,224.171 251.5,224C 253.008,222.493 254.341,220.827 255.5,219C 253.24,218.451 251.574,217.284 250.5,215.5 Z"/></g>
<g><path style="opacity:1" fill="#3a7adb" d="M 360.5,251.5 C 363.818,236.378 367.651,221.378 372,206.5C 372.736,203.408 372.569,200.408 371.5,197.5C 372.75,197.423 373.583,196.756 374,195.5C 375.117,196.949 375.784,198.616 376,200.5C 377.558,199.655 378.558,200.321 379,202.5C 379.537,205.093 380.37,207.593 381.5,210C 380.761,212.254 379.761,214.421 378.5,216.5C 377.668,213.518 377.501,210.518 378,207.5C 376.387,206.378 375.22,206.878 374.5,209C 374.869,211.552 374.869,214.219 374.5,217C 375.416,217.374 376.25,217.874 377,218.5C 377.495,220.473 377.662,222.473 377.5,224.5C 376.178,224.67 375.011,224.337 374,223.5C 373.667,220.5 373.333,217.5 373,214.5C 372.333,215.167 371.667,215.833 371,216.5C 368.849,225.649 366.682,234.483 364.5,243C 364.79,246.118 365.456,249.118 366.5,252C 364.193,252.271 363.026,251.105 363,248.5C 362.623,249.942 361.79,250.942 360.5,251.5 Z"/></g>
<g><path style="opacity:0.004" fill="#fefffe" d="M 16.5,223.5 C 17.8333,224.167 17.8333,224.167 16.5,223.5 Z"/></g>
<g><path style="opacity:0.004" fill="#fefffe" d="M 7.5,224.5 C 8.83333,225.167 8.83333,225.167 7.5,224.5 Z"/></g>
<g><path style="opacity:1" fill="#457dd2" d="M 257.5,203.5 C 255.873,205.63 254.04,207.63 252,209.5C 251.137,211.749 251.637,213.582 253.5,215C 265.514,215.167 277.514,215.667 289.5,216.5C 285.67,226.016 281.67,235.35 277.5,244.5C 278.833,238.833 280.167,233.167 281.5,227.5C 279.436,227.687 277.436,228.187 275.5,229C 274.428,232.268 272.761,235.101 270.5,237.5C 271.39,233.305 272.723,229.305 274.5,225.5C 276.833,225.5 279.167,225.5 281.5,225.5C 281.343,224.127 281.51,222.793 282,221.5C 284.67,220.776 286.17,219.109 286.5,216.5C 274.42,216.812 262.42,216.479 250.5,215.5C 250.632,212.675 250.299,209.675 249.5,206.5C 250.391,205.41 251.391,205.41 252.5,206.5C 253.806,205.088 254.64,203.421 255,201.5C 255.417,202.756 256.25,203.423 257.5,203.5 Z"/></g>
<g><path style="opacity:1" fill="#497ed2" d="M 181.5,213.5 C 185.113,223.279 188.113,233.279 190.5,243.5C 189.839,242.282 189.172,240.949 188.5,239.5C 187.914,239.709 187.414,240.043 187,240.5C 186.503,237.854 186.336,235.187 186.5,232.5C 183.387,232.935 182.721,231.935 184.5,229.5C 182.209,224.422 181.209,219.089 181.5,213.5 Z"/></g>
<g><path style="opacity:1" fill="#5486d8" d="M 113.5,223.5 C 133.132,224.143 152.799,224.81 172.5,225.5C 175.333,226.668 176.666,228.835 176.5,232C 176.371,233.981 175.704,235.647 174.5,237C 154.836,237.5 135.169,237.667 115.5,237.5C 114.833,241.5 114.167,241.5 113.5,237.5C 112.5,237.5 111.5,237.5 110.5,237.5C 112.135,233.046 113.135,228.379 113.5,223.5 Z M 118.5,226.5 C 117.602,227.158 116.602,227.824 115.5,228.5C 113.717,231.78 114.383,234.28 117.5,236C 135.833,236.667 154.167,236.667 172.5,236C 176.644,231.95 175.977,228.95 170.5,227C 153.17,226.5 135.837,226.333 118.5,226.5 Z"/></g>
<g><path style="opacity:1" fill="#4379cb" d="M 69.5,228.5 C 70.2489,237.467 70.7489,246.467 71,255.5C 73,256.5 73,257.5 71,258.5C 70.5005,264.825 70.3338,271.158 70.5,277.5C 68.9819,268.048 68.3152,258.381 68.5,248.5C 68.5004,241.658 68.8337,234.991 69.5,228.5 Z"/></g>
<g><path style="opacity:1" fill="#3077dd" d="M 277.5,244.5 C 275.525,252.125 272.692,259.458 269,266.5C 268.505,268.473 268.338,270.473 268.5,272.5C 269.552,272.649 270.552,272.483 271.5,272C 283,258.668 295,245.835 307.5,233.5C 309.484,233.383 311.15,234.05 312.5,235.5C 313.524,234.147 314.857,233.48 316.5,233.5C 316.5,234.5 316.5,235.5 316.5,236.5C 314.692,236.491 313.025,236.991 311.5,238C 312.38,239.356 312.714,240.856 312.5,242.5C 310.473,242.338 308.473,242.505 306.5,243C 306.833,243.333 307.167,243.667 307.5,244C 306.809,245.067 306.309,246.234 306,247.5C 305.667,247.167 305.333,246.833 305,246.5C 304.506,248.134 304.34,249.801 304.5,251.5C 297.173,260.159 289.507,268.493 281.5,276.5C 280.417,276.461 279.417,276.127 278.5,275.5C 277.646,276.522 276.646,277.355 275.5,278C 275.957,278.414 276.291,278.914 276.5,279.5C 271.844,280.569 267.178,280.569 262.5,279.5C 259.073,276.626 257.906,272.959 259,268.5C 262.359,257.821 266.192,247.487 270.5,237.5C 272.761,235.101 274.428,232.268 275.5,229C 277.436,228.187 279.436,227.687 281.5,227.5C 280.167,233.167 278.833,238.833 277.5,244.5 Z"/></g>
<g><path style="opacity:0.004" fill="#fefffe" d="M 458.5,268.5 C 459.833,269.167 459.833,269.167 458.5,268.5 Z"/></g>
<g><path style="opacity:1" fill="#4a83d6" d="M 189.5,279.5 C 177.768,279.369 166.101,279.369 154.5,279.5C 154.76,277.405 155.926,276.072 158,275.5C 165.963,277.317 173.63,276.65 181,273.5C 182.826,274.01 182.993,274.844 181.5,276C 183.5,276.333 185.5,276.667 187.5,277C 188.381,277.708 189.047,278.542 189.5,279.5 Z"/></g>
<g><path style="opacity:1" fill="#5284d4" d="M 281.5,276.5 C 277.628,282.147 272.295,283.98 265.5,282C 264.058,281.623 263.058,280.79 262.5,279.5C 267.178,280.569 271.844,280.569 276.5,279.5C 276.291,278.914 275.957,278.414 275.5,278C 276.646,277.355 277.646,276.522 278.5,275.5C 279.417,276.127 280.417,276.461 281.5,276.5 Z"/></g>
<g><path style="opacity:0.004" fill="#fefffe" d="M 51.5,285.5 C 52.8333,286.167 52.8333,286.167 51.5,285.5 Z"/></g>
<g><path style="opacity:0.996" fill="#5387d5" d="M 306.5,287.5 C 276.671,288.498 246.671,288.831 216.5,288.5C 216.4,295.123 215.067,301.456 212.5,307.5C 211.922,308.547 211.256,308.38 210.5,307C 212.674,300.642 214.341,294.142 215.5,287.5C 245.833,287.5 276.167,287.5 306.5,287.5 Z"/></g>
<g><path style="opacity:0.953" fill="#6d9bda" d="M 73.5,291.5 C 75.6688,294.098 77.1688,297.098 78,300.5C 78.4966,302.81 78.6633,305.143 78.5,307.5C 76.2314,302.447 74.5648,297.113 73.5,291.5 Z"/></g>
<g><path style="opacity:0.878" fill="#5889cf" d="M 199.5,272.5 C 200.966,275.059 201.966,277.892 202.5,281C 200.197,290.726 197.53,300.226 194.5,309.5C 193.923,305.131 194.757,301.131 197,297.5C 199.178,289.214 200.011,280.88 199.5,272.5 Z"/></g>
<g><path style="opacity:1" fill="#5887d6" d="M 428.5,277.5 C 426.772,290.565 423.105,302.899 417.5,314.5C 418.722,310.835 418.722,307.169 417.5,303.5C 417.833,302.833 418.167,302.167 418.5,301.5C 419.281,302.729 419.781,304.062 420,305.5C 422.031,297.625 423.865,289.625 425.5,281.5C 426.521,280.099 427.521,278.765 428.5,277.5 Z"/></g>
<g><path style="opacity:0.941" fill="#4d85d3" d="M 340.5,309.5 C 338.184,308.84 335.851,308.173 333.5,307.5C 296.604,308.272 259.27,308.606 221.5,308.5C 240.822,307.167 260.488,306.5 280.5,306.5C 300.167,306.667 319.833,306.833 339.5,307C 340.252,307.671 340.586,308.504 340.5,309.5 Z"/></g>
<g><path style="opacity:0.754" fill="#7096ce" d="M 343.5,316.5 C 343.634,318.292 343.301,319.958 342.5,321.5C 295.051,323.488 247.384,324.154 199.5,323.5C 199.167,322.833 198.833,322.167 198.5,321.5C 245.501,321.667 292.501,321.5 339.5,321C 341.07,319.603 342.404,318.103 343.5,316.5 Z"/></g>
<g><path style="opacity:0.004" fill="#fefffe" d="M 1.5,325.5 C 2.83333,326.167 2.83333,326.167 1.5,325.5 Z"/></g>
<g><path style="opacity:1" fill="#2b74d8" d="M 342.5,321.5 C 342.281,322.675 342.614,323.675 343.5,324.5C 345.535,325.041 347.535,325.708 349.5,326.5C 345.408,327.564 341.408,328.73 337.5,330C 339.553,331.08 341.72,331.914 344,332.5C 346.427,330.254 349.094,329.588 352,330.5C 352.483,331.448 352.649,332.448 352.5,333.5C 348.753,333.199 345.253,333.866 342,335.5C 334.601,333.344 327.101,333.011 319.5,334.5C 318.617,335.548 317.95,336.715 317.5,338C 318.749,342.495 318.749,346.995 317.5,351.5C 315.931,352.714 315.098,354.381 315,356.5C 314.329,357.252 313.496,357.586 312.5,357.5C 313.566,355.148 314.733,352.814 316,350.5C 318.342,342.079 315.842,335.746 308.5,331.5C 311.48,331.62 314.313,332.287 317,333.5C 317.739,332.426 318.739,331.759 320,331.5C 324.81,331.413 329.476,331.747 334,332.5C 335.654,329.879 337.487,327.379 339.5,325C 301.5,324.333 263.5,324.333 225.5,325C 224.692,325.308 224.025,325.808 223.5,326.5C 226.106,330.051 227.939,334.051 229,338.5C 230.353,334.59 232.853,333.257 236.5,334.5C 235.675,335.386 234.675,335.719 233.5,335.5C 233.5,337.167 233.5,338.833 233.5,340.5C 232.5,340.5 231.5,340.5 230.5,340.5C 231.828,347.927 229.494,353.594 223.5,357.5C 225.205,354.958 226.705,352.292 228,349.5C 229.662,337.657 224.495,331.324 212.5,330.5C 210.5,330.5 208.5,330.5 206.5,330.5C 208.019,329.59 209.685,328.757 211.5,328C 209.5,327.667 207.5,327.333 205.5,327C 204.167,326.333 204.167,325.667 205.5,325C 203.292,324.809 201.292,324.309 199.5,323.5C 247.384,324.154 295.051,323.488 342.5,321.5 Z"/></g>
<g><path style="opacity:0.004" fill="#fefffe" d="M 422.5,328.5 C 423.833,329.167 423.833,329.167 422.5,328.5 Z"/></g>
<g><path style="opacity:1" fill="#6395d6" d="M 206.5,330.5 C 208.5,330.5 210.5,330.5 212.5,330.5C 208.964,331.601 205.631,333.268 202.5,335.5C 202.5,334.167 202.5,332.833 202.5,331.5C 204.099,331.768 205.432,331.434 206.5,330.5 Z"/></g>
<g><path style="opacity:1" fill="#5e8ed6" d="M 294.5,332.5 C 290.833,335.5 287.5,338.833 284.5,342.5C 284.5,340.5 284.5,338.5 284.5,336.5C 287.667,336.076 290.001,334.41 291.5,331.5C 292.417,332.127 293.417,332.461 294.5,332.5 Z"/></g>
<g><path style="opacity:0.004" fill="#fefffe" d="M 418.5,343.5 C 419.833,344.167 419.833,344.167 418.5,343.5 Z"/></g>
<g><path style="opacity:0.004" fill="#fefffe" d="M 20.5,346.5 C 21.8333,347.167 21.8333,347.167 20.5,346.5 Z"/></g>
<g><path style="opacity:1" fill="#3b79da" d="M 88.5,330.5 C 91.9832,331.649 94.1499,333.982 95,337.5C 95.5885,335.137 97.0885,334.137 99.5,334.5C 99.5191,336.06 99.8524,337.56 100.5,339C 99.6161,340.098 98.6161,340.598 97.5,340.5C 100.979,346.168 104.312,351.835 107.5,357.5C 107.833,357.833 108.167,358.167 108.5,358.5C 109.78,356.276 109.447,354.276 107.5,352.5C 108,352.167 108.5,351.833 109,351.5C 110.394,352.613 111.561,353.947 112.5,355.5C 114.217,354.332 114.884,352.665 114.5,350.5C 115.833,350.5 117.167,350.5 118.5,350.5C 118.576,352.923 117.576,354.756 115.5,356C 115.905,356.945 116.572,357.612 117.5,358C 116.296,359.353 115.629,361.019 115.5,363C 115.071,366.86 116.738,368.694 120.5,368.5C 120.328,370.492 120.995,372.158 122.5,373.5C 123.651,374.731 124.817,374.731 126,373.5C 127.074,374.618 128.24,375.618 129.5,376.5C 129.291,377.086 128.957,377.586 128.5,378C 129.937,380.725 131.937,382.892 134.5,384.5C 135.854,381.933 135.52,379.599 133.5,377.5C 134.651,376.269 135.817,376.269 137,377.5C 137.318,379.061 138.151,380.228 139.5,381C 137.901,382.066 136.901,383.566 136.5,385.5C 138.278,386.726 139.278,388.393 139.5,390.5C 117.432,374.768 100.432,354.768 88.5,330.5 Z"/></g>
<g><path style="opacity:1" fill="#487ed1" d="M 201.5,335.5 C 198.731,338.779 196.564,342.445 195,346.5C 193.325,358.994 198.825,364.994 211.5,364.5C 204.789,366.36 198.955,364.694 194,359.5C 192.915,353.823 192.248,348.157 192,342.5C 192.667,343.167 193.333,343.833 194,344.5C 194.494,342.866 194.66,341.199 194.5,339.5C 198.161,339.65 199.161,338.15 197.5,335C 199.066,334.235 200.399,334.402 201.5,335.5 Z"/></g>
<g><path style="opacity:0.004" fill="#fefffe" d="M 438.5,353.5 C 439.833,354.167 439.833,354.167 438.5,353.5 Z"/></g>
<g><path style="opacity:0.973" fill="#8cabe6" d="M 283.5,347.5 C 283.19,351.7 283.857,355.7 285.5,359.5C 284.85,359.196 284.183,358.863 283.5,358.5C 282.192,354.685 282.192,351.019 283.5,347.5 Z"/></g>
<g><path style="opacity:1" fill="#4d82d9" d="M 407.5,335.5 C 401.437,348.225 393.437,359.559 383.5,369.5C 383.5,367.833 383.5,366.167 383.5,364.5C 384.5,364.5 385.5,364.5 386.5,364.5C 386.5,363.5 386.5,362.5 386.5,361.5C 383.5,361.833 382.167,360.5 382.5,357.5C 385.33,357.694 387.996,358.361 390.5,359.5C 390.343,358.127 390.51,356.793 391,355.5C 391.333,355.833 391.667,356.167 392,356.5C 392.856,354.132 393.69,351.798 394.5,349.5C 395.552,349.649 396.552,349.483 397.5,349C 399.468,346.714 401.135,344.214 402.5,341.5C 400.748,338.809 401.248,338.142 404,339.5C 404.49,338.207 404.657,336.873 404.5,335.5C 405.5,335.5 406.5,335.5 407.5,335.5 Z"/></g>
<g><path style="opacity:0.004" fill="#fefffe" d="M 56.5,379.5 C 57.8333,380.167 57.8333,380.167 56.5,379.5 Z"/></g>
<g><path style="opacity:0.004" fill="#fefffe" d="M 452.5,382.5 C 453.833,383.167 453.833,383.167 452.5,382.5 Z"/></g>
<g><path style="opacity:0.004" fill="#fefffe" d="M 111.5,383.5 C 112.833,384.167 112.833,384.167 111.5,383.5 Z"/></g>
<g><path style="opacity:1" fill="#5387d5" d="M 369.5,382.5 C 363.901,387.639 357.901,392.305 351.5,396.5C 351.5,395.167 351.5,393.833 351.5,392.5C 352.833,392.5 354.167,392.5 355.5,392.5C 355.5,391.5 355.5,390.5 355.5,389.5C 359.306,388.74 362.306,386.74 364.5,383.5C 366.045,382.548 367.712,382.215 369.5,382.5 Z"/></g>
<g><path style="opacity:1" fill="#5585d8" d="M 346.5,399.5 C 338.251,405.459 329.251,410.126 319.5,413.5C 322.661,410.75 326.327,408.75 330.5,407.5C 331.711,406.726 331.711,405.893 330.5,405C 332.134,404.506 333.801,404.34 335.5,404.5C 335.351,403.448 335.517,402.448 336,401.5C 337.356,402.38 338.856,402.714 340.5,402.5C 340.5,401.5 340.5,400.5 340.5,399.5C 342.5,399.5 344.5,399.5 346.5,399.5 Z"/></g>
<g><path style="opacity:0.004" fill="#fefffe" d="M 380.5,404.5 C 381.833,405.167 381.833,405.167 380.5,404.5 Z"/></g>
<g><path style="opacity:1" fill="#467dd2" d="M 161.5,404.5 C 163.199,404.34 164.866,404.506 166.5,405C 166.167,405.333 165.833,405.667 165.5,406C 167.515,406.424 169.349,407.258 171,408.5C 172.44,407.852 173.94,407.519 175.5,407.5C 175.651,410.718 176.484,411.051 178,408.5C 178.465,409.931 179.299,411.097 180.5,412C 184.153,412.83 187.153,414.663 189.5,417.5C 179.346,414.754 170.013,410.421 161.5,404.5 Z"/></g>
<g><path style="opacity:0.004" fill="#fefffe" d="M 441.5,408.5 C 442.833,409.167 442.833,409.167 441.5,408.5 Z"/></g>
<g><path style="opacity:1" fill="#407dda" d="M 319.5,413.5 C 303.951,420.32 287.617,424.82 270.5,427C 243.887,429.721 217.887,427.055 192.5,419C 191.944,418.617 191.611,418.117 191.5,417.5C 195.681,417.737 199.681,418.737 203.5,420.5C 205.343,420.221 207.177,419.887 209,419.5C 212.25,420.793 215.584,421.793 219,422.5C 224.482,421.81 229.816,420.81 235,419.5C 242.021,420.725 249.021,421.725 256,422.5C 257.147,421.542 258.147,421.875 259,423.5C 261.213,422.24 263.713,421.574 266.5,421.5C 275.645,421.442 275.645,422.276 266.5,424C 268.5,424.167 270.5,424.333 272.5,424.5C 279.942,423.543 287.275,422.043 294.5,420C 292.616,419.784 290.949,419.117 289.5,418C 294.485,418.219 299.485,418.219 304.5,418C 309.294,415.719 314.294,414.219 319.5,413.5 Z"/></g>
<g><path style="opacity:0.004" fill="#fefffe" d="M 382.5,426.5 C 383.833,427.167 383.833,427.167 382.5,426.5 Z"/></g>
<g><path style="opacity:0.004" fill="#fefffe" d="M 117.5,435.5 C 118.833,436.167 118.833,436.167 117.5,435.5 Z"/></g>
<g><path style="opacity:0.004" fill="#fefffe" d="M 449.5,441.5 C 450.833,442.167 450.833,442.167 449.5,441.5 Z"/></g>
<g><path style="opacity:0.004" fill="#fefffe" d="M 372.5,448.5 C 373.833,449.167 373.833,449.167 372.5,448.5 Z"/></g>
<g><path style="opacity:0.004" fill="#fefffe" d="M 15.5,449.5 C 16.8333,450.167 16.8333,450.167 15.5,449.5 Z"/></g>
<g><path style="opacity:0.004" fill="#fefffe" d="M 470.5,453.5 C 471.833,454.167 471.833,454.167 470.5,453.5 Z"/></g>
<g><path style="opacity:0.004" fill="#fefffe" d="M 16.5,454.5 C 17.8333,455.167 17.8333,455.167 16.5,454.5 Z"/></g>
<g><path style="opacity:0.004" fill="#fefffe" d="M 413.5,456.5 C 414.833,457.167 414.833,457.167 413.5,456.5 Z"/></g>
<g><path style="opacity:0.004" fill="#fefffe" d="M 154.5,476.5 C 155.833,477.167 155.833,477.167 154.5,476.5 Z"/></g>
<g><path style="opacity:0.004" fill="#fefffe" d="M 89.5,481.5 C 90.8333,482.167 90.8333,482.167 89.5,481.5 Z"/></g>
<g><path style="opacity:0.004" fill="#fefffe" d="M 366.5,487.5 C 367.833,488.167 367.833,488.167 366.5,487.5 Z"/></g>
<g><path style="opacity:0.004" fill="#fefffe" d="M 162.5,493.5 C 163.833,494.167 163.833,494.167 162.5,493.5 Z"/></g>
<g><path style="opacity:0.004" fill="#fefffe" d="M 220.5,495.5 C 221.833,496.167 221.833,496.167 220.5,495.5 Z"/></g>
<g><path style="opacity:0.004" fill="#fefffe" d="M 90.5,496.5 C 91.8333,497.167 91.8333,497.167 90.5,496.5 Z"/></g>
</svg>
